<?xml version="1.0" encoding="UTF-8"?>
<!--Generator: Apple Native CoreSVG 175-->
<!DOCTYPE svg
PUBLIC "-//W3C//DTD SVG 1.1//EN"
       "http://www.w3.org/Graphics/SVG/1.1/DTD/svg11.dtd">
<svg version="1.1" xmlns="http://www.w3.org/2000/svg" xmlns:xlink="http://www.w3.org/1999/xlink" width="3300" height="2200">
 <!--glyph: "uni1001D9.medium", point size: 100.0, font version: "17.1d1e1", template writer version: "65.1"-->
 <style>.multicolor-0:white {fill:#FFFFFF;opacity:1.0}
.multicolor-1:systemYellowColor {fill:#FFCC00;opacity:1.0}
.multicolor-2:white {fill:#FFFFFF;opacity:1.0}

.hierarchical-0:secondary {fill:#4D4D4D}
.hierarchical-1:primary {fill:#212121}

.SFSymbolsPreviewFFCC00 {fill:#FFCC00;opacity:1.0}
.SFSymbolsPreviewFFFFFF {fill:#FFFFFF;opacity:1.0}
</style>
 <g id="Notes">
  <rect height="2200" id="artboard" style="fill:white;opacity:1" width="3300" x="0" y="0"/>
  <line style="fill:none;stroke:black;opacity:1;stroke-width:0.5;" x1="263" x2="3036" y1="292" y2="292"/>
  <text style="stroke:none;fill:black;font-family:sans-serif;font-size:13;font-weight:bold;" transform="matrix(1 0 0 1 263 322)">Weight/Scale Variations</text>
  <text style="stroke:none;fill:black;font-family:sans-serif;font-size:13;text-anchor:middle;" transform="matrix(1 0 0 1 559.711 322)">Ultralight</text>
  <text style="stroke:none;fill:black;font-family:sans-serif;font-size:13;text-anchor:middle;" transform="matrix(1 0 0 1 856.422 322)">Thin</text>
  <text style="stroke:none;fill:black;font-family:sans-serif;font-size:13;text-anchor:middle;" transform="matrix(1 0 0 1 1153.13 322)">Light</text>
  <text style="stroke:none;fill:black;font-family:sans-serif;font-size:13;text-anchor:middle;" transform="matrix(1 0 0 1 1449.84 322)">Regular</text>
  <text style="stroke:none;fill:black;font-family:sans-serif;font-size:13;text-anchor:middle;" transform="matrix(1 0 0 1 1746.56 322)">Medium</text>
  <text style="stroke:none;fill:black;font-family:sans-serif;font-size:13;text-anchor:middle;" transform="matrix(1 0 0 1 2043.27 322)">Semibold</text>
  <text style="stroke:none;fill:black;font-family:sans-serif;font-size:13;text-anchor:middle;" transform="matrix(1 0 0 1 2339.98 322)">Bold</text>
  <text style="stroke:none;fill:black;font-family:sans-serif;font-size:13;text-anchor:middle;" transform="matrix(1 0 0 1 2636.69 322)">Heavy</text>
  <text style="stroke:none;fill:black;font-family:sans-serif;font-size:13;text-anchor:middle;" transform="matrix(1 0 0 1 2933.4 322)">Black</text>
  <line style="fill:none;stroke:black;opacity:1;stroke-width:0.5;" x1="263" x2="3036" y1="1903" y2="1903"/>
  <g transform="matrix(1 0 0 1 263 1933)">
   <path d="M9.24805 0.830078Q10.8691 0.830078 12.2949 0.214844Q13.7207-0.400391 14.8096-1.49414Q15.8984-2.58789 16.5186-4.01367Q17.1387-5.43945 17.1387-7.05078Q17.1387-8.66211 16.5186-10.0879Q15.8984-11.5137 14.8047-12.6074Q13.7109-13.7012 12.2852-14.3164Q10.8594-14.9316 9.23828-14.9316Q7.62695-14.9316 6.20117-14.3164Q4.77539-13.7012 3.69141-12.6074Q2.60742-11.5137 1.9873-10.0879Q1.36719-8.66211 1.36719-7.05078Q1.36719-5.43945 1.9873-4.01367Q2.60742-2.58789 3.69629-1.49414Q4.78516-0.400391 6.21094 0.214844Q7.63672 0.830078 9.24805 0.830078ZM9.24805-0.654297Q7.91992-0.654297 6.7627-1.14746Q5.60547-1.64062 4.73145-2.51953Q3.85742-3.39844 3.36426-4.56055Q2.87109-5.72266 2.87109-7.05078Q2.87109-8.37891 3.35938-9.54102Q3.84766-10.7031 4.72168-11.582Q5.5957-12.4609 6.75293-12.9541Q7.91016-13.4473 9.23828-13.4473Q10.5762-13.4473 11.7334-12.9541Q12.8906-12.4609 13.7695-11.582Q14.6484-10.7031 15.1465-9.54102Q15.6445-8.37891 15.6445-7.05078Q15.6445-5.72266 15.1514-4.56055Q14.6582-3.39844 13.7842-2.51953Q12.9102-1.64062 11.748-1.14746Q10.5859-0.654297 9.24805-0.654297ZM5.6543-7.05078Q5.6543-6.72852 5.85938-6.52832Q6.06445-6.32812 6.40625-6.32812L8.51562-6.32812L8.51562-4.20898Q8.51562-3.88672 8.71094-3.67676Q8.90625-3.4668 9.23828-3.4668Q9.56055-3.4668 9.77051-3.67676Q9.98047-3.88672 9.98047-4.20898L9.98047-6.32812L12.0898-6.32812Q12.4219-6.32812 12.627-6.52832Q12.832-6.72852 12.832-7.05078Q12.832-7.38281 12.627-7.58789Q12.4219-7.79297 12.0898-7.79297L9.98047-7.79297L9.98047-9.90234Q9.98047-10.2344 9.77051-10.4443Q9.56055-10.6543 9.23828-10.6543Q8.90625-10.6543 8.71094-10.4443Q8.51562-10.2344 8.51562-9.90234L8.51562-7.79297L6.40625-7.79297Q6.06445-7.79297 5.85938-7.58789Q5.6543-7.38281 5.6543-7.05078Z"/>
  </g>
  <g transform="matrix(1 0 0 1 281.867 1933)">
   <path d="M11.709 2.91016Q13.75 2.91016 15.5518 2.12891Q17.3535 1.34766 18.7305-0.0292969Q20.1074-1.40625 20.8887-3.20801Q21.6699-5.00977 21.6699-7.05078Q21.6699-9.0918 20.8887-10.8936Q20.1074-12.6953 18.7305-14.0723Q17.3535-15.4492 15.5469-16.2305Q13.7402-17.0117 11.6992-17.0117Q9.6582-17.0117 7.85645-16.2305Q6.05469-15.4492 4.68262-14.0723Q3.31055-12.6953 2.5293-10.8936Q1.74805-9.0918 1.74805-7.05078Q1.74805-5.00977 2.5293-3.20801Q3.31055-1.40625 4.6875-0.0292969Q6.06445 1.34766 7.86621 2.12891Q9.66797 2.91016 11.709 2.91016ZM11.709 1.25Q9.98047 1.25 8.47656 0.605469Q6.97266-0.0390625 5.83496-1.17676Q4.69727-2.31445 4.05762-3.81836Q3.41797-5.32227 3.41797-7.05078Q3.41797-8.7793 4.05762-10.2832Q4.69727-11.7871 5.83008-12.9297Q6.96289-14.0723 8.4668-14.7119Q9.9707-15.3516 11.6992-15.3516Q13.4277-15.3516 14.9316-14.7119Q16.4355-14.0723 17.5781-12.9297Q18.7207-11.7871 19.3652-10.2832Q20.0098-8.7793 20.0098-7.05078Q20.0098-5.32227 19.3701-3.81836Q18.7305-2.31445 17.5928-1.17676Q16.4551-0.0390625 14.9463 0.605469Q13.4375 1.25 11.709 1.25ZM7.17773-7.05078Q7.17773-6.69922 7.41211-6.47461Q7.64648-6.25 8.01758-6.25L10.8887-6.25L10.8887-3.36914Q10.8887-2.99805 11.1133-2.76855Q11.3379-2.53906 11.6895-2.53906Q12.0605-2.53906 12.29-2.76855Q12.5195-2.99805 12.5195-3.36914L12.5195-6.25L15.4004-6.25Q15.7715-6.25 16.001-6.47461Q16.2305-6.69922 16.2305-7.05078Q16.2305-7.42188 16.001-7.65137Q15.7715-7.88086 15.4004-7.88086L12.5195-7.88086L12.5195-10.752Q12.5195-11.1328 12.29-11.3623Q12.0605-11.5918 11.6895-11.5918Q11.3379-11.5918 11.1133-11.3574Q10.8887-11.123 10.8887-10.752L10.8887-7.88086L8.01758-7.88086Q7.63672-7.88086 7.40723-7.65137Q7.17773-7.42188 7.17773-7.05078Z"/>
  </g>
  <g transform="matrix(1 0 0 1 305.646 1933)">
   <path d="M14.9707 5.66406Q17.0605 5.66406 18.96 5.01465Q20.8594 4.36523 22.4512 3.19336Q24.043 2.02148 25.2197 0.429688Q26.3965-1.16211 27.0459-3.06641Q27.6953-4.9707 27.6953-7.05078Q27.6953-9.14062 27.0459-11.04Q26.3965-12.9395 25.2197-14.5312Q24.043-16.123 22.4512-17.2998Q20.8594-18.4766 18.9551-19.126Q17.0508-19.7754 14.9609-19.7754Q12.8711-19.7754 10.9717-19.126Q9.07227-18.4766 7.48535-17.2998Q5.89844-16.123 4.72168-14.5312Q3.54492-12.9395 2.90039-11.04Q2.25586-9.14062 2.25586-7.05078Q2.25586-4.9707 2.90527-3.06641Q3.55469-1.16211 4.72656 0.429688Q5.89844 2.02148 7.49023 3.19336Q9.08203 4.36523 10.9814 5.01465Q12.8809 5.66406 14.9707 5.66406ZM14.9707 3.84766Q13.1641 3.84766 11.5283 3.2959Q9.89258 2.74414 8.53516 1.74805Q7.17773 0.751953 6.17676-0.610352Q5.17578-1.97266 4.62891-3.6084Q4.08203-5.24414 4.08203-7.05078Q4.08203-8.86719 4.62891-10.5029Q5.17578-12.1387 6.17188-13.501Q7.16797-14.8633 8.52539-15.8594Q9.88281-16.8555 11.5186-17.4023Q13.1543-17.9492 14.9609-17.9492Q16.7773-17.9492 18.4131-17.4023Q20.0488-16.8555 21.4111-15.8594Q22.7734-14.8633 23.7695-13.501Q24.7656-12.1387 25.3174-10.5029Q25.8691-8.86719 25.8691-7.05078Q25.8789-5.24414 25.332-3.6084Q24.7852-1.97266 23.7842-0.610352Q22.7832 0.751953 21.4209 1.74805Q20.0586 2.74414 18.4229 3.2959Q16.7871 3.84766 14.9707 3.84766ZM9.19922-7.05078Q9.19922-6.66992 9.45801-6.4209Q9.7168-6.17188 10.1172-6.17188L14.0625-6.17188L14.0625-2.2168Q14.0625-1.81641 14.3115-1.55762Q14.5605-1.29883 14.9512-1.29883Q15.3516-1.29883 15.6104-1.55273Q15.8691-1.80664 15.8691-2.2168L15.8691-6.17188L19.8242-6.17188Q20.2246-6.17188 20.4785-6.4209Q20.7324-6.66992 20.7324-7.05078Q20.7324-7.46094 20.4785-7.71484Q20.2246-7.96875 19.8242-7.96875L15.8691-7.96875L15.8691-11.9141Q15.8691-12.3242 15.6104-12.583Q15.3516-12.8418 14.9512-12.8418Q14.5605-12.8418 14.3115-12.583Q14.0625-12.3242 14.0625-11.9141L14.0625-7.96875L10.1172-7.96875Q9.70703-7.96875 9.45312-7.71484Q9.19922-7.46094 9.19922-7.05078Z"/>
  </g>
  <text style="stroke:none;fill:black;font-family:sans-serif;font-size:13;font-weight:bold;" transform="matrix(1 0 0 1 263 1953)">Design Variations</text>
  <text style="stroke:none;fill:black;font-family:sans-serif;font-size:13;" transform="matrix(1 0 0 1 263 1971)">Symbols are supported in up to nine weights and three scales.</text>
  <text style="stroke:none;fill:black;font-family:sans-serif;font-size:13;" transform="matrix(1 0 0 1 263 1989)">For optimal layout with text and other symbols, vertically align</text>
  <text style="stroke:none;fill:black;font-family:sans-serif;font-size:13;" transform="matrix(1 0 0 1 263 2007)">symbols with the adjacent text.</text>
  <line style="fill:none;stroke:#00AEEF;stroke-width:0.5;opacity:1.0;" x1="776" x2="776" y1="1919" y2="1933"/>
  <g transform="matrix(1 0 0 1 776 1933)">
   <path d="M3.31055 0.15625Q3.70117 0.15625 3.91602-0.00976562Q4.13086-0.175781 4.26758-0.585938L5.52734-4.0332L11.2891-4.0332L12.5488-0.585938Q12.6855-0.175781 12.9004-0.00976562Q13.1152 0.15625 13.4961 0.15625Q13.8867 0.15625 14.1162-0.0585938Q14.3457-0.273438 14.3457-0.644531Q14.3457-0.869141 14.2383-1.17188L9.6582-13.3691Q9.48242-13.8184 9.17969-14.043Q8.87695-14.2676 8.4082-14.2676Q7.5-14.2676 7.17773-13.3789L2.59766-1.16211Q2.49023-0.859375 2.49023-0.634766Q2.49023-0.263672 2.70996-0.0537109Q2.92969 0.15625 3.31055 0.15625ZM6.00586-5.51758L8.37891-12.0898L8.42773-12.0898L10.8008-5.51758Z"/>
  </g>
  <line style="fill:none;stroke:#00AEEF;stroke-width:0.5;opacity:1.0;" x1="793.197" x2="793.197" y1="1919" y2="1933"/>
  <text style="stroke:none;fill:black;font-family:sans-serif;font-size:13;font-weight:bold;" transform="matrix(1 0 0 1 776 1953)">Margins</text>
  <text style="stroke:none;fill:black;font-family:sans-serif;font-size:13;" transform="matrix(1 0 0 1 776 1971)">Leading and trailing margins on the left and right side of each symbol</text>
  <text style="stroke:none;fill:black;font-family:sans-serif;font-size:13;" transform="matrix(1 0 0 1 776 1989)">can be adjusted by modifying the x-location of the margin guidelines.</text>
  <text style="stroke:none;fill:black;font-family:sans-serif;font-size:13;" transform="matrix(1 0 0 1 776 2007)">Modifications are automatically applied proportionally to all</text>
  <text style="stroke:none;fill:black;font-family:sans-serif;font-size:13;" transform="matrix(1 0 0 1 776 2025)">scales and weights.</text>
  <g transform="matrix(1 0 0 1 1289 1933)">
   <path d="M2.8418 1.86523L4.54102 3.57422Q5.18555 4.22852 5.90332 4.17969Q6.62109 4.13086 7.31445 3.35938L18.0078-8.42773L17.041-9.4043L6.42578 2.27539Q6.16211 2.57812 5.89355 2.61719Q5.625 2.65625 5.27344 2.30469L4.10156 1.14258Q3.75 0.791016 3.79395 0.522461Q3.83789 0.253906 4.14062-0.0195312L15.6152-10.8203L14.6387-11.7871L3.04688-0.898438Q2.30469-0.214844 2.25098 0.498047Q2.19727 1.21094 2.8418 1.86523ZM9.25781-16.3281Q8.94531-16.0254 8.90625-15.6348Q8.86719-15.2441 9.04297-14.9512Q9.21875-14.6777 9.55566-14.541Q9.89258-14.4043 10.3809-14.5215Q11.4746-14.7754 12.5977-14.7314Q13.7207-14.6875 14.7949-13.9844L14.209-12.5293Q13.9551-11.9043 14.0674-11.4404Q14.1797-10.9766 14.5801-10.5664L16.875-8.25195Q17.2363-7.88086 17.5781-7.82227Q17.9199-7.76367 18.3398-7.8418L19.4043-8.03711L20.0684-7.36328L20.0293-6.80664Q20-6.43555 20.1221-6.12305Q20.2441-5.81055 20.6055-5.44922L21.3672-4.70703Q21.7285-4.3457 22.1533-4.33105Q22.5781-4.31641 22.9297-4.66797L25.8398-7.58789Q26.1914-7.93945 26.1816-8.35449Q26.1719-8.76953 25.8105-9.13086L25.0391-9.89258Q24.6875-10.2539 24.3799-10.3857Q24.0723-10.5176 23.7109-10.4883L23.1348-10.4395L22.4902-11.0742L22.7344-12.1973Q22.832-12.6172 22.6953-12.9834Q22.5586-13.3496 22.1191-13.7891L19.9219-15.9766Q18.6719-17.2168 17.2607-17.8369Q15.8496-18.457 14.4189-18.4814Q12.9883-18.5059 11.665-17.959Q10.3418-17.4121 9.25781-16.3281ZM10.752-15.957Q11.6602-16.6211 12.7002-16.9043Q13.7402-17.1875 14.8047-17.085Q15.8691-16.9824 16.8701-16.5137Q17.8711-16.0449 18.7012-15.2051L21.1328-12.793Q21.3086-12.6172 21.3525-12.4512Q21.3965-12.2852 21.3379-12.0312L21.0156-10.5469L22.5195-9.0625L23.5059-9.12109Q23.6914-9.13086 23.7891-9.09668Q23.8867-9.0625 24.0332-8.91602L24.6094-8.33984L22.168-5.89844L21.5918-6.47461Q21.4453-6.62109 21.4062-6.71875Q21.3672-6.81641 21.377-7.01172L21.4453-7.98828L19.9512-9.47266L18.4277-9.21875Q18.1836-9.16992 18.042-9.2041Q17.9004-9.23828 17.7148-9.41406L15.7129-11.416Q15.5176-11.5918 15.4932-11.7529Q15.4688-11.9141 15.5859-12.1875L16.4648-14.2773Q15.293-15.3711 13.8281-15.791Q12.3633-16.2109 10.8398-15.7617Q10.7227-15.7324 10.6885-15.8057Q10.6543-15.8789 10.752-15.957Z"/>
  </g>
  <text style="stroke:none;fill:black;font-family:sans-serif;font-size:13;font-weight:bold;" transform="matrix(1 0 0 1 1289 1953)">Exporting</text>
  <text style="stroke:none;fill:black;font-family:sans-serif;font-size:13;" transform="matrix(1 0 0 1 1289 1971)">Symbols should be outlined when exporting to ensure the</text>
  <text style="stroke:none;fill:black;font-family:sans-serif;font-size:13;" transform="matrix(1 0 0 1 1289 1989)">design is preserved when submitting to Xcode.</text>
  <text id="template-version" style="stroke:none;fill:black;font-family:sans-serif;font-size:13;text-anchor:end;" transform="matrix(1 0 0 1 3036 1933)">Template v.3.0</text>
  <text style="stroke:none;fill:black;font-family:sans-serif;font-size:13;text-anchor:end;" transform="matrix(1 0 0 1 3036 1951)">Requires Xcode 13 or greater</text>
  <text id="descriptive-name" style="stroke:none;fill:black;font-family:sans-serif;font-size:13;text-anchor:end;" transform="matrix(1 0 0 1 3036 1969)">Generated from cloud.sun.bolt.fill</text>
  <text style="stroke:none;fill:black;font-family:sans-serif;font-size:13;text-anchor:end;" transform="matrix(1 0 0 1 3036 1987)">Typeset at 100 points</text>
  <text style="stroke:none;fill:black;font-family:sans-serif;font-size:13;" transform="matrix(1 0 0 1 263 726)">Small</text>
  <text style="stroke:none;fill:black;font-family:sans-serif;font-size:13;" transform="matrix(1 0 0 1 263 1156)">Medium</text>
  <text style="stroke:none;fill:black;font-family:sans-serif;font-size:13;" transform="matrix(1 0 0 1 263 1586)">Large</text>
 </g>
 <g id="Guides">
  <g id="H-reference" style="fill:#27AAE1;stroke:none;" transform="matrix(1 0 0 1 339 696)">
   <path d="M0.993347 0L3.6377 0L29.3282-67.1326L30.0301-67.1326L30.0301-70.459L28.1227-70.459ZM11.6882-24.4797L46.9818-24.4797L46.2311-26.7288L12.4382-26.7288ZM55.1193 0L57.7637 0L30.6381-70.459L29.4327-70.459L29.4327-67.1326Z"/>
  </g>
  <line id="Baseline-S" style="fill:none;stroke:#27AAE1;opacity:1;stroke-width:0.5;" x1="263" x2="3036" y1="696" y2="696"/>
  <line id="Capline-S" style="fill:none;stroke:#27AAE1;opacity:1;stroke-width:0.5;" x1="263" x2="3036" y1="625.541" y2="625.541"/>
  <g id="H-reference" style="fill:#27AAE1;stroke:none;" transform="matrix(1 0 0 1 339 1126)">
   <path d="M0.993347 0L3.6377 0L29.3282-67.1326L30.0301-67.1326L30.0301-70.459L28.1227-70.459ZM11.6882-24.4797L46.9818-24.4797L46.2311-26.7288L12.4382-26.7288ZM55.1193 0L57.7637 0L30.6381-70.459L29.4327-70.459L29.4327-67.1326Z"/>
  </g>
  <line id="Baseline-M" style="fill:none;stroke:#27AAE1;opacity:1;stroke-width:0.5;" x1="263" x2="3036" y1="1126" y2="1126"/>
  <line id="Capline-M" style="fill:none;stroke:#27AAE1;opacity:1;stroke-width:0.5;" x1="263" x2="3036" y1="1055.54" y2="1055.54"/>
  <g id="H-reference" style="fill:#27AAE1;stroke:none;" transform="matrix(1 0 0 1 339 1556)">
   <path d="M0.993347 0L3.6377 0L29.3282-67.1326L30.0301-67.1326L30.0301-70.459L28.1227-70.459ZM11.6882-24.4797L46.9818-24.4797L46.2311-26.7288L12.4382-26.7288ZM55.1193 0L57.7637 0L30.6381-70.459L29.4327-70.459L29.4327-67.1326Z"/>
  </g>
  <line id="Baseline-L" style="fill:none;stroke:#27AAE1;opacity:1;stroke-width:0.5;" x1="263" x2="3036" y1="1556" y2="1556"/>
  <line id="Capline-L" style="fill:none;stroke:#27AAE1;opacity:1;stroke-width:0.5;" x1="263" x2="3036" y1="1485.54" y2="1485.54"/>
  <line id="left-margin-Ultralight-S" style="fill:none;stroke:#00AEEF;stroke-width:0.5;opacity:1.0;" x1="505.373" x2="505.373" y1="600.785" y2="720.121"/>
  <line id="right-margin-Ultralight-S" style="fill:none;stroke:#FF3B30;stroke-width:0.5;opacity:1.0;" x1="614.049" x2="614.049" y1="600.785" y2="720.121"/>
  <line id="left-margin-Regular-S" style="fill:none;stroke:#00AEEF;stroke-width:0.5;opacity:1.0;" x1="1393.99" x2="1393.99" y1="600.785" y2="720.121"/>
  <line id="right-margin-Regular-S" style="fill:none;stroke:#FF3B30;stroke-width:0.5;opacity:1.0;" x1="1505.7" x2="1505.7" y1="600.785" y2="720.121"/>
  <line id="left-margin-Black-S" style="fill:none;stroke:#00AEEF;stroke-width:0.5;opacity:1.0;" x1="2872.61" x2="2872.61" y1="600.785" y2="720.121"/>
  <line id="right-margin-Black-S" style="fill:none;stroke:#FF3B30;stroke-width:0.5;opacity:1.0;" x1="2994.19" x2="2994.19" y1="600.785" y2="720.121"/>
 </g>
 <g id="Symbols">
  <g id="Black-S" transform="matrix(1 0 0 1 2872.61 696)">
   <path class="multicolor-0:white hierarchical-1:primary SFSymbolsPreviewFFFFFF" d="M20.5566-8.34961L68.3105-8.34961Q73.9746-8.34961 78.4424-11.0596Q82.9102-13.7695 85.498-18.4082Q88.0859-23.0469 88.0859-28.9551Q88.0859-35.2051 85.2539-40.0391Q82.4219-44.873 77.5146-47.6318Q72.6074-50.3906 66.2598-50.3418Q64.4043-53.8574 61.2549-57.0801Q58.1055-60.3027 53.3936-62.3779Q48.6816-64.4531 42.0898-64.4531Q35.0098-64.4531 29.126-61.3037Q23.2422-58.1543 19.5557-52.6855Q15.8691-47.2168 15.332-40.332Q9.91211-38.9648 6.66504-34.7168Q3.41797-30.4688 3.41797-24.6582Q3.41797-17.3828 8.1543-12.8662Q12.8906-8.34961 20.5566-8.34961Z"/>
   <path class="multicolor-1:systemYellowColor hierarchical-0:secondary SFSymbolsPreviewFFCC00" d="M95.0195-36.7188Q98.6328-39.2578 100.903-43.5303Q103.174-47.8027 103.174-52.832Q103.174-58.3984 100.464-62.9395Q97.7539-67.4805 93.1885-70.1904Q88.623-72.9004 83.0566-72.9004Q77.5879-72.9004 73.0469-70.2881Q68.5059-67.6758 66.1621-63.7207Q68.9453-61.0352 70.8008-57.373Q76.5625-57.1289 81.6162-54.3945Q86.6699-51.6602 90.21-47.0947Q93.75-42.5293 95.0195-36.7188ZM82.959-78.8086Q84.9609-78.8086 86.3525-80.2734Q87.7441-81.7383 87.7441-83.6914L87.7441-89.9414Q87.7441-91.9434 86.3525-93.3838Q84.9609-94.8242 82.959-94.8242Q81.0059-94.8242 79.5898-93.3838Q78.1738-91.9434 78.1738-89.9414L78.1738-83.6914Q78.1738-81.7383 79.5898-80.2734Q81.0059-78.8086 82.959-78.8086ZM101.416-71.1426Q102.832-69.7754 104.858-69.8242Q106.885-69.873 108.252-71.2402L112.695-75.6348Q114.111-77.0508 114.136-79.0771Q114.16-81.1035 112.744-82.4707Q111.377-83.8867 109.351-83.8379Q107.324-83.7891 105.908-82.373L101.465-78.0273Q100.049-76.6602 100.049-74.6094Q100.049-72.5586 101.416-71.1426ZM57.7148-71.2891Q59.1309-69.873 61.1572-69.8486Q63.1836-69.8242 64.5508-71.1914Q65.9668-72.6074 65.918-74.585Q65.8691-76.5625 64.4531-78.0273L60.1074-82.5195Q58.7402-83.9355 56.6895-83.9355Q54.6387-83.9355 53.2227-82.5195Q51.8555-81.1523 51.9043-79.1504Q51.9531-77.1484 53.3203-75.7324ZM113.818-48.0469L120.117-48.0469Q122.119-48.0469 123.56-49.4385Q125-50.8301 125-52.7832Q125-54.7852 123.56-56.2012Q122.119-57.6172 120.117-57.6172L113.818-57.6172Q111.865-57.6172 110.4-56.2012Q108.936-54.7852 108.936-52.7832Q108.936-50.8301 110.4-49.4385Q111.865-48.0469 113.818-48.0469ZM105.859-23.1445Q107.275-21.7285 109.302-21.7041Q111.328-21.6797 112.695-23.0469Q114.111-24.4629 114.062-26.4404Q114.014-28.418 112.598-29.8828L108.252-34.375Q106.885-35.791 104.834-35.791Q102.783-35.791 101.367-34.375Q100-33.0078 100.049-31.0059Q100.098-29.0039 101.465-27.5879Z"/>
   <path class="multicolor-2:white hierarchical-1:primary SFSymbolsPreviewFFFFFF" d="M57.1289 5.27344L46.6797 5.27344L46.3379 8.20312L50.9277-0.585938Q51.2695-1.2207 51.0498-1.66016Q50.8301-2.09961 50.1465-2.09961L38.3789-2.09961Q37.5488-2.09961 37.1582-1.80664Q36.7676-1.51367 36.5234-0.878906L31.1035 11.4746Q30.8105 12.1582 31.0547 12.5977Q31.2988 13.0371 32.0801 13.0371L40.5273 13.0371L40.5273 10.5957L34.1797 25.9766Q33.7891 26.8066 34.4238 27.0996Q35.0098 27.3438 35.6445 26.7578L57.7148 7.27539Q58.3984 6.68945 58.2031 5.98145Q58.0078 5.27344 57.1289 5.27344Z"/>
  </g>
  <g id="Regular-S" transform="matrix(1 0 0 1 1393.99 696)">
   <path class="multicolor-0:white hierarchical-1:primary SFSymbolsPreviewFFFFFF" d="M20.2148-11.4258L61.4746-11.4258Q66.9434-11.4258 71.3867-13.9648Q75.8301-16.5039 78.418-20.8496Q81.0059-25.1953 81.0059-30.6152Q81.0059-35.9863 78.3447-40.2344Q75.6836-44.4824 71.1182-46.9727Q66.5527-49.4629 60.7422-49.5117Q58.5449-53.7109 55.2246-56.7139Q51.9043-59.7168 47.7783-61.3037Q43.6523-62.8906 39.0137-62.8906Q32.7148-62.8906 27.3682-59.9609Q22.0215-57.0312 18.5547-51.9775Q15.0879-46.9238 14.502-40.625Q9.66797-39.1602 6.81152-35.2539Q3.95508-31.3477 3.95508-26.2695Q3.95508-19.6289 8.47168-15.5273Q12.9883-11.4258 20.2148-11.4258Z"/>
   <path class="multicolor-1:systemYellowColor hierarchical-0:secondary SFSymbolsPreviewFFCC00" d="M85.7422-32.4707Q89.8438-35.4004 92.1631-39.5996Q94.4824-43.7988 94.4824-48.7305Q94.4824-54.0527 91.8945-58.4229Q89.3066-62.793 84.9609-65.3809Q80.6152-67.9688 75.293-67.9688Q70.2637-67.9688 66.0645-65.5762Q61.8652-63.1836 59.3262-59.2773Q61.8652-56.7871 63.5742-53.6133Q70.0195-53.0762 74.8291-50.3418Q79.6387-47.6074 82.4463-43.0664Q85.2539-38.5254 85.7422-32.4707ZM75.293-73.7793Q76.8066-73.7793 77.8809-74.8779Q78.9551-75.9766 78.9551-77.4414L78.9551-85.0586Q78.9551-86.5723 77.8809-87.6465Q76.8066-88.7207 75.293-88.7207Q73.7793-88.7207 72.7051-87.6465Q71.6309-86.5723 71.6309-85.0586L71.6309-77.4414Q71.6309-75.9766 72.7051-74.8779Q73.7793-73.7793 75.293-73.7793ZM92.9688-66.4062Q93.9941-65.3809 95.5566-65.3564Q97.1191-65.332 98.1934-66.4062L103.564-71.8262Q104.639-72.9004 104.614-74.4141Q104.59-75.9277 103.564-77.002Q102.49-78.0273 101.001-78.0518Q99.5117-78.0762 98.4375-77.002L92.9688-71.5332Q91.9434-70.459 91.9434-68.9697Q91.9434-67.4805 92.9688-66.4062ZM52.4414-66.4062Q53.5156-65.332 55.0537-65.3564Q56.5918-65.3809 57.6172-66.4062Q58.6426-67.4805 58.667-68.9697Q58.6914-70.459 57.6172-71.5332L52.1484-77.002Q51.123-78.0762 49.6094-78.0518Q48.0957-78.0273 47.0703-77.002Q45.9961-75.9277 45.9961-74.4141Q45.9961-72.9004 47.0703-71.8262ZM103.955-45.1172L111.572-45.1172Q113.086-45.1172 114.136-46.167Q115.186-47.2168 115.186-48.7305Q115.186-50.2441 114.136-51.3184Q113.086-52.3926 111.572-52.3926L103.955-52.3926Q102.49-52.3926 101.392-51.3184Q100.293-50.2441 100.293-48.7305Q100.293-47.2168 101.392-46.167Q102.49-45.1172 103.955-45.1172ZM98.4375-20.459Q99.5117-19.3848 101.001-19.4092Q102.49-19.4336 103.564-20.5078Q104.59-21.5332 104.614-23.0713Q104.639-24.6094 103.564-25.5859L98.0957-31.0059Q97.0215-32.0312 95.5322-32.0557Q94.043-32.0801 92.9688-31.0059Q91.9434-29.9805 91.9434-28.4424Q91.9434-26.9043 92.9688-25.8789Z"/>
   <path class="multicolor-2:white hierarchical-1:primary SFSymbolsPreviewFFFFFF" d="M53.0273 2.24609L44.3359 2.24609L44.1406 4.00391L48.3887-4.15039Q48.7305-4.78516 48.5107-5.17578Q48.291-5.56641 47.6562-5.56641L38.5254-5.56641Q37.7441-5.56641 37.4023-5.27344Q37.0605-4.98047 36.8164-4.44336L31.8359 6.83594Q31.543 7.51953 31.7871 7.91016Q32.0312 8.30078 32.7637 8.30078L39.9414 8.30078L40.4297 6.10352L34.5215 20.3125Q34.2285 21.1426 34.8145 21.3379Q35.3516 21.582 35.9375 20.9961L53.5156 4.10156Q54.1504 3.51562 53.9795 2.88086Q53.8086 2.24609 53.0273 2.24609Z"/>
  </g>
  <g id="Ultralight-S" transform="matrix(1 0 0 1 505.373 696)">
   <path class="multicolor-0:white hierarchical-1:primary SFSymbolsPreviewFFFFFF" d="M19.0338-12.3337L61.1115-12.3337Q66.1263-12.3337 70.1836-14.6233Q74.2409-16.9128 76.6472-20.8042Q79.0535-24.6956 79.0535-29.48Q79.0535-34.3513 76.5739-38.1908Q74.0944-42.0303 69.8013-44.2482Q65.5083-46.4661 60.1067-46.4691Q57.7278-51.0773 54.4983-54.2393Q51.2688-57.4013 47.279-59.0107Q43.2892-60.6201 38.6955-60.6201Q32.8514-60.6201 27.8904-57.6904Q22.9294-54.7607 19.7578-49.7299Q16.5863-44.6991 16.1369-38.4453Q10.9398-37.162 7.87888-33.5735Q4.81796-29.985 4.81796-25.1801Q4.81796-19.5381 8.78944-15.9359Q12.7609-12.3337 19.0338-12.3337Z"/>
   <path class="multicolor-1:systemYellowColor hierarchical-0:secondary SFSymbolsPreviewFFCC00" d="M81.9733-32.2433Q86.7561-34.7191 89.6656-39.0999Q92.5751-43.4807 92.5751-49.0486Q92.5751-54.007 90.1688-58.0822Q87.7625-62.1574 83.7349-64.5638Q79.7073-66.9701 74.7482-66.9701Q68.8103-66.9701 64.2708-63.6463Q59.7313-60.3226 57.9185-55.0995Q60.321-52.2919 61.8034-49.4354Q67.4767-49.0349 71.7186-46.6637Q75.9605-44.2924 78.5866-40.5689Q81.2126-36.8454 81.9733-32.2433ZM74.7932-74.0974Q75.2174-74.0974 75.5424-74.424Q75.8675-74.7505 75.8675-75.1259L75.8675-86.2846Q75.8675-86.7088 75.5424-86.9881Q75.2174-87.2673 74.7932-87.2673Q74.3698-87.2673 74.0448-86.9881Q73.7198-86.7088 73.7198-86.2846L73.7198-75.1259Q73.7198-74.7505 74.0448-74.424Q74.3698-74.0974 74.7932-74.0974ZM92.469-66.7244Q92.7681-66.4253 93.1953-66.4234Q93.6226-66.4215 93.9247-66.7244L101.794-74.5964Q102.141-74.9435 102.116-75.3674Q102.092-75.7912 101.794-76.0941Q101.492-76.3474 101.092-76.3718Q100.693-76.3962 100.345-76.0941L92.469-68.1732Q92.1707-67.9161 92.1707-67.4713Q92.1707-67.0265 92.469-66.7244ZM55.6656-66.7244Q55.9227-66.4215 56.3709-66.4234Q56.8192-66.4253 57.1175-66.7244Q57.4165-67.0265 57.4181-67.4713Q57.4196-67.9161 57.1175-68.1732L49.2424-76.0941Q48.8983-76.3962 48.4741-76.3718Q48.0499-76.3474 47.7516-76.0941Q47.4495-75.7912 47.4495-75.3674Q47.4495-74.9435 47.7516-74.5964ZM100.731-48.0232L111.935-48.0232Q112.405-48.0232 112.705-48.3238Q113.006-48.6244 113.006-49.0486Q113.006-49.472 112.705-49.7746Q112.405-50.0771 111.935-50.0771L100.731-50.0771Q100.311-50.0771 100.029-49.7746Q99.7482-49.472 99.7482-49.0486Q99.7482-48.6244 100.029-48.3238Q100.311-48.0232 100.731-48.0232ZM100.345-22.0032Q100.693-21.6553 101.092-21.6797Q101.492-21.7041 101.794-22.0062Q102.092-22.3053 102.116-22.7081Q102.141-23.111 101.794-23.452L93.9178-31.324Q93.6157-31.6223 93.1934-31.6242Q92.7711-31.6261 92.469-31.324Q92.1707-31.0249 92.1707-30.5992Q92.1707-30.1735 92.469-29.8752Z"/>
   <path class="multicolor-2:white hierarchical-1:primary SFSymbolsPreviewFFFFFF" d="M47.0329 3.01819L39.9765 3.01819L40.4625 4.04968L45.2103-4.78592Q45.5521-5.42068 45.3323-5.8567Q45.1126-6.29272 44.4321-6.29272L41.613-6.29272Q40.7867-6.29272 40.4221-5.99976Q40.0574-5.70679 39.7682-5.07889L35.2417 5.33752Q34.903 6.11191 35.2608 6.50253Q35.6186 6.89316 36.351 6.89316L41.758 6.89316L42.2462 4.55933L36.6104 18.042Q36.2267 18.9629 36.9034 19.2039Q37.6221 19.4481 38.1172 18.6806L47.8851 4.78287Q48.3383 4.15115 48.0991 3.58467Q47.86 3.01819 47.0329 3.01819Z"/>
  </g>
 </g>
</svg>
