<?xml version="1.0" encoding="UTF-8"?>
<!--Generator: Apple Native CoreSVG 175-->
<!DOCTYPE svg
PUBLIC "-//W3C//DTD SVG 1.1//EN"
       "http://www.w3.org/Graphics/SVG/1.1/DTD/svg11.dtd">
<svg version="1.1" xmlns="http://www.w3.org/2000/svg" xmlns:xlink="http://www.w3.org/1999/xlink" width="3300" height="2200">
 <!--glyph: "uni1001EC.medium", point size: 100.0, font version: "17.1d1e1", template writer version: "65.1"-->
 <style>.multicolor-0:white {fill:#FFFFFF;opacity:1.0}

.hierarchical-0:secondary {fill:#4D4D4D}
.hierarchical-1:primary {fill:#212121}

.SFSymbolsPreviewFFFFFF {fill:#FFFFFF;opacity:1.0}
</style>
 <g id="Notes">
  <rect height="2200" id="artboard" style="fill:white;opacity:1" width="3300" x="0" y="0"/>
  <line style="fill:none;stroke:black;opacity:1;stroke-width:0.5;" x1="263" x2="3036" y1="292" y2="292"/>
  <text style="stroke:none;fill:black;font-family:sans-serif;font-size:13;font-weight:bold;" transform="matrix(1 0 0 1 263 322)">Weight/Scale Variations</text>
  <text style="stroke:none;fill:black;font-family:sans-serif;font-size:13;text-anchor:middle;" transform="matrix(1 0 0 1 559.711 322)">Ultralight</text>
  <text style="stroke:none;fill:black;font-family:sans-serif;font-size:13;text-anchor:middle;" transform="matrix(1 0 0 1 856.422 322)">Thin</text>
  <text style="stroke:none;fill:black;font-family:sans-serif;font-size:13;text-anchor:middle;" transform="matrix(1 0 0 1 1153.13 322)">Light</text>
  <text style="stroke:none;fill:black;font-family:sans-serif;font-size:13;text-anchor:middle;" transform="matrix(1 0 0 1 1449.84 322)">Regular</text>
  <text style="stroke:none;fill:black;font-family:sans-serif;font-size:13;text-anchor:middle;" transform="matrix(1 0 0 1 1746.56 322)">Medium</text>
  <text style="stroke:none;fill:black;font-family:sans-serif;font-size:13;text-anchor:middle;" transform="matrix(1 0 0 1 2043.27 322)">Semibold</text>
  <text style="stroke:none;fill:black;font-family:sans-serif;font-size:13;text-anchor:middle;" transform="matrix(1 0 0 1 2339.98 322)">Bold</text>
  <text style="stroke:none;fill:black;font-family:sans-serif;font-size:13;text-anchor:middle;" transform="matrix(1 0 0 1 2636.69 322)">Heavy</text>
  <text style="stroke:none;fill:black;font-family:sans-serif;font-size:13;text-anchor:middle;" transform="matrix(1 0 0 1 2933.4 322)">Black</text>
  <line style="fill:none;stroke:black;opacity:1;stroke-width:0.5;" x1="263" x2="3036" y1="1903" y2="1903"/>
  <g transform="matrix(1 0 0 1 263 1933)">
   <path d="M9.24805 0.830078Q10.8691 0.830078 12.2949 0.214844Q13.7207-0.400391 14.8096-1.49414Q15.8984-2.58789 16.5186-4.01367Q17.1387-5.43945 17.1387-7.05078Q17.1387-8.66211 16.5186-10.0879Q15.8984-11.5137 14.8047-12.6074Q13.7109-13.7012 12.2852-14.3164Q10.8594-14.9316 9.23828-14.9316Q7.62695-14.9316 6.20117-14.3164Q4.77539-13.7012 3.69141-12.6074Q2.60742-11.5137 1.9873-10.0879Q1.36719-8.66211 1.36719-7.05078Q1.36719-5.43945 1.9873-4.01367Q2.60742-2.58789 3.69629-1.49414Q4.78516-0.400391 6.21094 0.214844Q7.63672 0.830078 9.24805 0.830078ZM9.24805-0.654297Q7.91992-0.654297 6.7627-1.14746Q5.60547-1.64062 4.73145-2.51953Q3.85742-3.39844 3.36426-4.56055Q2.87109-5.72266 2.87109-7.05078Q2.87109-8.37891 3.35938-9.54102Q3.84766-10.7031 4.72168-11.582Q5.5957-12.4609 6.75293-12.9541Q7.91016-13.4473 9.23828-13.4473Q10.5762-13.4473 11.7334-12.9541Q12.8906-12.4609 13.7695-11.582Q14.6484-10.7031 15.1465-9.54102Q15.6445-8.37891 15.6445-7.05078Q15.6445-5.72266 15.1514-4.56055Q14.6582-3.39844 13.7842-2.51953Q12.9102-1.64062 11.748-1.14746Q10.5859-0.654297 9.24805-0.654297ZM5.6543-7.05078Q5.6543-6.72852 5.85938-6.52832Q6.06445-6.32812 6.40625-6.32812L8.51562-6.32812L8.51562-4.20898Q8.51562-3.88672 8.71094-3.67676Q8.90625-3.4668 9.23828-3.4668Q9.56055-3.4668 9.77051-3.67676Q9.98047-3.88672 9.98047-4.20898L9.98047-6.32812L12.0898-6.32812Q12.4219-6.32812 12.627-6.52832Q12.832-6.72852 12.832-7.05078Q12.832-7.38281 12.627-7.58789Q12.4219-7.79297 12.0898-7.79297L9.98047-7.79297L9.98047-9.90234Q9.98047-10.2344 9.77051-10.4443Q9.56055-10.6543 9.23828-10.6543Q8.90625-10.6543 8.71094-10.4443Q8.51562-10.2344 8.51562-9.90234L8.51562-7.79297L6.40625-7.79297Q6.06445-7.79297 5.85938-7.58789Q5.6543-7.38281 5.6543-7.05078Z"/>
  </g>
  <g transform="matrix(1 0 0 1 281.867 1933)">
   <path d="M11.709 2.91016Q13.75 2.91016 15.5518 2.12891Q17.3535 1.34766 18.7305-0.0292969Q20.1074-1.40625 20.8887-3.20801Q21.6699-5.00977 21.6699-7.05078Q21.6699-9.0918 20.8887-10.8936Q20.1074-12.6953 18.7305-14.0723Q17.3535-15.4492 15.5469-16.2305Q13.7402-17.0117 11.6992-17.0117Q9.6582-17.0117 7.85645-16.2305Q6.05469-15.4492 4.68262-14.0723Q3.31055-12.6953 2.5293-10.8936Q1.74805-9.0918 1.74805-7.05078Q1.74805-5.00977 2.5293-3.20801Q3.31055-1.40625 4.6875-0.0292969Q6.06445 1.34766 7.86621 2.12891Q9.66797 2.91016 11.709 2.91016ZM11.709 1.25Q9.98047 1.25 8.47656 0.605469Q6.97266-0.0390625 5.83496-1.17676Q4.69727-2.31445 4.05762-3.81836Q3.41797-5.32227 3.41797-7.05078Q3.41797-8.7793 4.05762-10.2832Q4.69727-11.7871 5.83008-12.9297Q6.96289-14.0723 8.4668-14.7119Q9.9707-15.3516 11.6992-15.3516Q13.4277-15.3516 14.9316-14.7119Q16.4355-14.0723 17.5781-12.9297Q18.7207-11.7871 19.3652-10.2832Q20.0098-8.7793 20.0098-7.05078Q20.0098-5.32227 19.3701-3.81836Q18.7305-2.31445 17.5928-1.17676Q16.4551-0.0390625 14.9463 0.605469Q13.4375 1.25 11.709 1.25ZM7.17773-7.05078Q7.17773-6.69922 7.41211-6.47461Q7.64648-6.25 8.01758-6.25L10.8887-6.25L10.8887-3.36914Q10.8887-2.99805 11.1133-2.76855Q11.3379-2.53906 11.6895-2.53906Q12.0605-2.53906 12.29-2.76855Q12.5195-2.99805 12.5195-3.36914L12.5195-6.25L15.4004-6.25Q15.7715-6.25 16.001-6.47461Q16.2305-6.69922 16.2305-7.05078Q16.2305-7.42188 16.001-7.65137Q15.7715-7.88086 15.4004-7.88086L12.5195-7.88086L12.5195-10.752Q12.5195-11.1328 12.29-11.3623Q12.0605-11.5918 11.6895-11.5918Q11.3379-11.5918 11.1133-11.3574Q10.8887-11.123 10.8887-10.752L10.8887-7.88086L8.01758-7.88086Q7.63672-7.88086 7.40723-7.65137Q7.17773-7.42188 7.17773-7.05078Z"/>
  </g>
  <g transform="matrix(1 0 0 1 305.646 1933)">
   <path d="M14.9707 5.66406Q17.0605 5.66406 18.96 5.01465Q20.8594 4.36523 22.4512 3.19336Q24.043 2.02148 25.2197 0.429688Q26.3965-1.16211 27.0459-3.06641Q27.6953-4.9707 27.6953-7.05078Q27.6953-9.14062 27.0459-11.04Q26.3965-12.9395 25.2197-14.5312Q24.043-16.123 22.4512-17.2998Q20.8594-18.4766 18.9551-19.126Q17.0508-19.7754 14.9609-19.7754Q12.8711-19.7754 10.9717-19.126Q9.07227-18.4766 7.48535-17.2998Q5.89844-16.123 4.72168-14.5312Q3.54492-12.9395 2.90039-11.04Q2.25586-9.14062 2.25586-7.05078Q2.25586-4.9707 2.90527-3.06641Q3.55469-1.16211 4.72656 0.429688Q5.89844 2.02148 7.49023 3.19336Q9.08203 4.36523 10.9814 5.01465Q12.8809 5.66406 14.9707 5.66406ZM14.9707 3.84766Q13.1641 3.84766 11.5283 3.2959Q9.89258 2.74414 8.53516 1.74805Q7.17773 0.751953 6.17676-0.610352Q5.17578-1.97266 4.62891-3.6084Q4.08203-5.24414 4.08203-7.05078Q4.08203-8.86719 4.62891-10.5029Q5.17578-12.1387 6.17188-13.501Q7.16797-14.8633 8.52539-15.8594Q9.88281-16.8555 11.5186-17.4023Q13.1543-17.9492 14.9609-17.9492Q16.7773-17.9492 18.4131-17.4023Q20.0488-16.8555 21.4111-15.8594Q22.7734-14.8633 23.7695-13.501Q24.7656-12.1387 25.3174-10.5029Q25.8691-8.86719 25.8691-7.05078Q25.8789-5.24414 25.332-3.6084Q24.7852-1.97266 23.7842-0.610352Q22.7832 0.751953 21.4209 1.74805Q20.0586 2.74414 18.4229 3.2959Q16.7871 3.84766 14.9707 3.84766ZM9.19922-7.05078Q9.19922-6.66992 9.45801-6.4209Q9.7168-6.17188 10.1172-6.17188L14.0625-6.17188L14.0625-2.2168Q14.0625-1.81641 14.3115-1.55762Q14.5605-1.29883 14.9512-1.29883Q15.3516-1.29883 15.6104-1.55273Q15.8691-1.80664 15.8691-2.2168L15.8691-6.17188L19.8242-6.17188Q20.2246-6.17188 20.4785-6.4209Q20.7324-6.66992 20.7324-7.05078Q20.7324-7.46094 20.4785-7.71484Q20.2246-7.96875 19.8242-7.96875L15.8691-7.96875L15.8691-11.9141Q15.8691-12.3242 15.6104-12.583Q15.3516-12.8418 14.9512-12.8418Q14.5605-12.8418 14.3115-12.583Q14.0625-12.3242 14.0625-11.9141L14.0625-7.96875L10.1172-7.96875Q9.70703-7.96875 9.45312-7.71484Q9.19922-7.46094 9.19922-7.05078Z"/>
  </g>
  <text style="stroke:none;fill:black;font-family:sans-serif;font-size:13;font-weight:bold;" transform="matrix(1 0 0 1 263 1953)">Design Variations</text>
  <text style="stroke:none;fill:black;font-family:sans-serif;font-size:13;" transform="matrix(1 0 0 1 263 1971)">Symbols are supported in up to nine weights and three scales.</text>
  <text style="stroke:none;fill:black;font-family:sans-serif;font-size:13;" transform="matrix(1 0 0 1 263 1989)">For optimal layout with text and other symbols, vertically align</text>
  <text style="stroke:none;fill:black;font-family:sans-serif;font-size:13;" transform="matrix(1 0 0 1 263 2007)">symbols with the adjacent text.</text>
  <line style="fill:none;stroke:#00AEEF;stroke-width:0.5;opacity:1.0;" x1="776" x2="776" y1="1919" y2="1933"/>
  <g transform="matrix(1 0 0 1 776 1933)">
   <path d="M3.31055 0.15625Q3.70117 0.15625 3.91602-0.00976562Q4.13086-0.175781 4.26758-0.585938L5.52734-4.0332L11.2891-4.0332L12.5488-0.585938Q12.6855-0.175781 12.9004-0.00976562Q13.1152 0.15625 13.4961 0.15625Q13.8867 0.15625 14.1162-0.0585938Q14.3457-0.273438 14.3457-0.644531Q14.3457-0.869141 14.2383-1.17188L9.6582-13.3691Q9.48242-13.8184 9.17969-14.043Q8.87695-14.2676 8.4082-14.2676Q7.5-14.2676 7.17773-13.3789L2.59766-1.16211Q2.49023-0.859375 2.49023-0.634766Q2.49023-0.263672 2.70996-0.0537109Q2.92969 0.15625 3.31055 0.15625ZM6.00586-5.51758L8.37891-12.0898L8.42773-12.0898L10.8008-5.51758Z"/>
  </g>
  <line style="fill:none;stroke:#00AEEF;stroke-width:0.5;opacity:1.0;" x1="793.197" x2="793.197" y1="1919" y2="1933"/>
  <text style="stroke:none;fill:black;font-family:sans-serif;font-size:13;font-weight:bold;" transform="matrix(1 0 0 1 776 1953)">Margins</text>
  <text style="stroke:none;fill:black;font-family:sans-serif;font-size:13;" transform="matrix(1 0 0 1 776 1971)">Leading and trailing margins on the left and right side of each symbol</text>
  <text style="stroke:none;fill:black;font-family:sans-serif;font-size:13;" transform="matrix(1 0 0 1 776 1989)">can be adjusted by modifying the x-location of the margin guidelines.</text>
  <text style="stroke:none;fill:black;font-family:sans-serif;font-size:13;" transform="matrix(1 0 0 1 776 2007)">Modifications are automatically applied proportionally to all</text>
  <text style="stroke:none;fill:black;font-family:sans-serif;font-size:13;" transform="matrix(1 0 0 1 776 2025)">scales and weights.</text>
  <g transform="matrix(1 0 0 1 1289 1933)">
   <path d="M2.8418 1.86523L4.54102 3.57422Q5.18555 4.22852 5.90332 4.17969Q6.62109 4.13086 7.31445 3.35938L18.0078-8.42773L17.041-9.4043L6.42578 2.27539Q6.16211 2.57812 5.89355 2.61719Q5.625 2.65625 5.27344 2.30469L4.10156 1.14258Q3.75 0.791016 3.79395 0.522461Q3.83789 0.253906 4.14062-0.0195312L15.6152-10.8203L14.6387-11.7871L3.04688-0.898438Q2.30469-0.214844 2.25098 0.498047Q2.19727 1.21094 2.8418 1.86523ZM9.25781-16.3281Q8.94531-16.0254 8.90625-15.6348Q8.86719-15.2441 9.04297-14.9512Q9.21875-14.6777 9.55566-14.541Q9.89258-14.4043 10.3809-14.5215Q11.4746-14.7754 12.5977-14.7314Q13.7207-14.6875 14.7949-13.9844L14.209-12.5293Q13.9551-11.9043 14.0674-11.4404Q14.1797-10.9766 14.5801-10.5664L16.875-8.25195Q17.2363-7.88086 17.5781-7.82227Q17.9199-7.76367 18.3398-7.8418L19.4043-8.03711L20.0684-7.36328L20.0293-6.80664Q20-6.43555 20.1221-6.12305Q20.2441-5.81055 20.6055-5.44922L21.3672-4.70703Q21.7285-4.3457 22.1533-4.33105Q22.5781-4.31641 22.9297-4.66797L25.8398-7.58789Q26.1914-7.93945 26.1816-8.35449Q26.1719-8.76953 25.8105-9.13086L25.0391-9.89258Q24.6875-10.2539 24.3799-10.3857Q24.0723-10.5176 23.7109-10.4883L23.1348-10.4395L22.4902-11.0742L22.7344-12.1973Q22.832-12.6172 22.6953-12.9834Q22.5586-13.3496 22.1191-13.7891L19.9219-15.9766Q18.6719-17.2168 17.2607-17.8369Q15.8496-18.457 14.4189-18.4814Q12.9883-18.5059 11.665-17.959Q10.3418-17.4121 9.25781-16.3281ZM10.752-15.957Q11.6602-16.6211 12.7002-16.9043Q13.7402-17.1875 14.8047-17.085Q15.8691-16.9824 16.8701-16.5137Q17.8711-16.0449 18.7012-15.2051L21.1328-12.793Q21.3086-12.6172 21.3525-12.4512Q21.3965-12.2852 21.3379-12.0312L21.0156-10.5469L22.5195-9.0625L23.5059-9.12109Q23.6914-9.13086 23.7891-9.09668Q23.8867-9.0625 24.0332-8.91602L24.6094-8.33984L22.168-5.89844L21.5918-6.47461Q21.4453-6.62109 21.4062-6.71875Q21.3672-6.81641 21.377-7.01172L21.4453-7.98828L19.9512-9.47266L18.4277-9.21875Q18.1836-9.16992 18.042-9.2041Q17.9004-9.23828 17.7148-9.41406L15.7129-11.416Q15.5176-11.5918 15.4932-11.7529Q15.4688-11.9141 15.5859-12.1875L16.4648-14.2773Q15.293-15.3711 13.8281-15.791Q12.3633-16.2109 10.8398-15.7617Q10.7227-15.7324 10.6885-15.8057Q10.6543-15.8789 10.752-15.957Z"/>
  </g>
  <text style="stroke:none;fill:black;font-family:sans-serif;font-size:13;font-weight:bold;" transform="matrix(1 0 0 1 1289 1953)">Exporting</text>
  <text style="stroke:none;fill:black;font-family:sans-serif;font-size:13;" transform="matrix(1 0 0 1 1289 1971)">Symbols should be outlined when exporting to ensure the</text>
  <text style="stroke:none;fill:black;font-family:sans-serif;font-size:13;" transform="matrix(1 0 0 1 1289 1989)">design is preserved when submitting to Xcode.</text>
  <text id="template-version" style="stroke:none;fill:black;font-family:sans-serif;font-size:13;text-anchor:end;" transform="matrix(1 0 0 1 3036 1933)">Template v.3.0</text>
  <text style="stroke:none;fill:black;font-family:sans-serif;font-size:13;text-anchor:end;" transform="matrix(1 0 0 1 3036 1951)">Requires Xcode 13 or greater</text>
  <text id="descriptive-name" style="stroke:none;fill:black;font-family:sans-serif;font-size:13;text-anchor:end;" transform="matrix(1 0 0 1 3036 1969)">Generated from thermometer</text>
  <text style="stroke:none;fill:black;font-family:sans-serif;font-size:13;text-anchor:end;" transform="matrix(1 0 0 1 3036 1987)">Typeset at 100 points</text>
  <text style="stroke:none;fill:black;font-family:sans-serif;font-size:13;" transform="matrix(1 0 0 1 263 726)">Small</text>
  <text style="stroke:none;fill:black;font-family:sans-serif;font-size:13;" transform="matrix(1 0 0 1 263 1156)">Medium</text>
  <text style="stroke:none;fill:black;font-family:sans-serif;font-size:13;" transform="matrix(1 0 0 1 263 1586)">Large</text>
 </g>
 <g id="Guides">
  <g id="H-reference" style="fill:#27AAE1;stroke:none;" transform="matrix(1 0 0 1 339 696)">
   <path d="M0.993347 0L3.6377 0L29.3282-67.1326L30.0301-67.1326L30.0301-70.459L28.1227-70.459ZM11.6882-24.4797L46.9818-24.4797L46.2311-26.7288L12.4382-26.7288ZM55.1193 0L57.7637 0L30.6381-70.459L29.4327-70.459L29.4327-67.1326Z"/>
  </g>
  <line id="Baseline-S" style="fill:none;stroke:#27AAE1;opacity:1;stroke-width:0.5;" x1="263" x2="3036" y1="696" y2="696"/>
  <line id="Capline-S" style="fill:none;stroke:#27AAE1;opacity:1;stroke-width:0.5;" x1="263" x2="3036" y1="625.541" y2="625.541"/>
  <g id="H-reference" style="fill:#27AAE1;stroke:none;" transform="matrix(1 0 0 1 339 1126)">
   <path d="M0.993347 0L3.6377 0L29.3282-67.1326L30.0301-67.1326L30.0301-70.459L28.1227-70.459ZM11.6882-24.4797L46.9818-24.4797L46.2311-26.7288L12.4382-26.7288ZM55.1193 0L57.7637 0L30.6381-70.459L29.4327-70.459L29.4327-67.1326Z"/>
  </g>
  <line id="Baseline-M" style="fill:none;stroke:#27AAE1;opacity:1;stroke-width:0.5;" x1="263" x2="3036" y1="1126" y2="1126"/>
  <line id="Capline-M" style="fill:none;stroke:#27AAE1;opacity:1;stroke-width:0.5;" x1="263" x2="3036" y1="1055.54" y2="1055.54"/>
  <g id="H-reference" style="fill:#27AAE1;stroke:none;" transform="matrix(1 0 0 1 339 1556)">
   <path d="M0.993347 0L3.6377 0L29.3282-67.1326L30.0301-67.1326L30.0301-70.459L28.1227-70.459ZM11.6882-24.4797L46.9818-24.4797L46.2311-26.7288L12.4382-26.7288ZM55.1193 0L57.7637 0L30.6381-70.459L29.4327-70.459L29.4327-67.1326Z"/>
  </g>
  <line id="Baseline-L" style="fill:none;stroke:#27AAE1;opacity:1;stroke-width:0.5;" x1="263" x2="3036" y1="1556" y2="1556"/>
  <line id="Capline-L" style="fill:none;stroke:#27AAE1;opacity:1;stroke-width:0.5;" x1="263" x2="3036" y1="1485.54" y2="1485.54"/>
  <line id="left-margin-Ultralight-S" style="fill:none;stroke:#00AEEF;stroke-width:0.5;opacity:1.0;" x1="531.717" x2="531.717" y1="600.785" y2="720.121"/>
  <line id="right-margin-Ultralight-S" style="fill:none;stroke:#00AEEF;stroke-width:0.5;opacity:1.0;" x1="587.706" x2="587.706" y1="600.785" y2="720.121"/>
  <line id="left-margin-Regular-S" style="fill:none;stroke:#00AEEF;stroke-width:0.5;opacity:1.0;" x1="1419.69" x2="1419.69" y1="600.785" y2="720.121"/>
  <line id="right-margin-Regular-S" style="fill:none;stroke:#FF3B30;stroke-width:0.5;opacity:1.0;" x1="1480" x2="1480" y1="600.785" y2="720.121"/>
  <line id="left-margin-Black-S" style="fill:none;stroke:#00AEEF;stroke-width:0.5;opacity:1.0;" x1="2898.24" x2="2898.24" y1="600.785" y2="720.121"/>
  <line id="right-margin-Black-S" style="fill:none;stroke:#FF3B30;stroke-width:0.5;opacity:1.0;" x1="2968.56" x2="2968.56" y1="600.785" y2="720.121"/>
 </g>
 <g id="Symbols">
  <g id="Black-S" transform="matrix(1 0 0 1 2898.24 696)">
   <path class="multicolor-0:white hierarchical-1:primary SFSymbolsPreviewFFFFFF" d="M35.2051 13.7695Q42.1875 13.7695 47.9492 10.4492Q53.7109 7.12891 57.1289 1.46484Q60.5469-4.19922 60.5469-11.1816Q60.5469-16.1133 58.7646-20.3369Q56.9824-24.5605 53.5645-27.9785Q52.6855-28.8574 52.6855-30.0293L52.7344-59.668Q52.7344-65.2832 50.5127-69.4824Q48.291-73.6816 44.3604-76.0254Q40.4297-78.3691 35.2051-78.3691Q27.2949-78.3691 22.4365-73.2178Q17.5781-68.0664 17.5781-59.668L17.627-30.0293Q17.627-28.8086 16.748-27.9785Q13.2324-24.707 11.499-20.4102Q9.76562-16.1133 9.76562-11.1816Q9.76562-4.19922 13.208 1.46484Q16.6504 7.12891 22.4121 10.4492Q28.1738 13.7695 35.2051 13.7695ZM35.2051 2.29492Q31.3477 2.29492 28.1982 0.415039Q25.0488-1.46484 23.1689-4.63867Q21.2891-7.8125 21.2891-11.6699Q21.2891-15.5762 22.9492-18.4326Q24.6094-21.2891 27.5879-23.2422Q28.418-23.7793 28.7842-24.3652Q29.1504-24.9512 29.1504-26.0742L29.1504-59.375Q29.1504-62.7441 30.835-64.7949Q32.5195-66.8457 35.2051-66.8457Q37.8418-66.8457 39.502-64.7949Q41.1621-62.7441 41.1621-59.375L41.1621-26.0742Q41.1621-24.9512 41.5283-24.3652Q41.8945-23.7793 42.7246-23.2422Q45.7031-21.2891 47.3633-18.4326Q49.0234-15.5762 49.0234-11.6699Q49.0234-7.8125 47.1436-4.63867Q45.2637-1.46484 42.1387 0.415039Q39.0137 2.29492 35.2051 2.29492ZM35.1562-2.88086Q38.7695-2.88086 41.333-5.44434Q43.8965-8.00781 43.8965-11.6699Q43.8965-14.209 42.6025-16.2109Q41.3086-18.2129 39.209-19.3359Q38.3301-19.8242 37.9883-20.3369Q37.6465-20.8496 37.6465-22.168L37.6465-38.2812Q37.6465-39.6973 36.9141-40.4785Q36.1816-41.2598 35.1562-41.2598Q34.1309-41.2598 33.3984-40.4785Q32.666-39.6973 32.666-38.2812L32.666-22.168Q32.666-20.8496 32.3242-20.3369Q31.9824-19.8242 31.1035-19.3359Q29.0039-18.2129 27.71-16.2109Q26.416-14.209 26.416-11.6699Q26.416-8.00781 28.9795-5.44434Q31.543-2.88086 35.1562-2.88086Z"/>
   <path class="multicolor-0:white hierarchical-0:secondary SFSymbolsPreviewFFFFFF" d="M60.498-59.2285L69.3848-59.2285Q70.7031-59.2285 71.4844-60.0342Q72.2656-60.8398 72.2656-62.0605Q72.2656-63.2812 71.4844-64.0869Q70.7031-64.8926 69.3848-64.8926L60.498-64.8926Q59.1797-64.8926 58.3984-64.0869Q57.6172-63.2812 57.6172-62.0605Q57.6172-60.8398 58.3984-60.0342Q59.1797-59.2285 60.498-59.2285ZM60.498-38.9648L69.3848-38.9648Q70.7031-38.9648 71.4844-39.7705Q72.2656-40.5762 72.2656-41.7969Q72.2656-43.0176 71.4844-43.8232Q70.7031-44.6289 69.3848-44.6289L60.498-44.6289Q59.1797-44.6289 58.3984-43.8232Q57.6172-43.0176 57.6172-41.7969Q57.6172-40.5762 58.3984-39.7705Q59.1797-38.9648 60.498-38.9648ZM60.498-28.7109L69.3848-28.7109Q70.7031-28.7109 71.4844-29.5166Q72.2656-30.3223 72.2656-31.543Q72.2656-32.7637 71.4844-33.5693Q70.7031-34.375 69.3848-34.375L60.498-34.375Q59.1797-34.375 58.3984-33.5693Q57.6172-32.7637 57.6172-31.543Q57.6172-30.3223 58.3984-29.5166Q59.1797-28.7109 60.498-28.7109ZM60.498-49.2188L69.3848-49.2188Q70.7031-49.2188 71.4844-50.0244Q72.2656-50.8301 72.2656-52.0508Q72.2656-53.2715 71.4844-54.0771Q70.7031-54.8828 69.3848-54.8828L60.498-54.8828Q59.1797-54.8828 58.3984-54.0771Q57.6172-53.2715 57.6172-52.0508Q57.6172-50.8301 58.3984-50.0244Q59.1797-49.2188 60.498-49.2188Z"/>
  </g>
  <g id="Regular-S" transform="matrix(1 0 0 1 1419.69 696)">
   <path class="multicolor-0:white hierarchical-1:primary SFSymbolsPreviewFFFFFF" d="M30.1758 10.2539Q35.791 10.2539 40.4053 7.51953Q45.0195 4.78516 47.7783 0.146484Q50.5371-4.49219 50.5371-10.1074Q50.5371-14.502 48.7549-18.3838Q46.9727-22.2656 43.5547-25.3906Q42.627-26.2695 42.627-27.5391L42.6758-61.2793Q42.6758-65.3809 41.1133-68.457Q39.5508-71.5332 36.7432-73.2422Q33.9355-74.9512 30.1758-74.9512Q24.5605-74.9512 21.0938-71.167Q17.627-67.3828 17.627-61.2793L17.6758-27.5391Q17.6758-26.2695 16.748-25.3906Q13.3301-22.2656 11.5479-18.3838Q9.76562-14.502 9.76562-10.1074Q9.76562-4.49219 12.5244 0.146484Q15.2832 4.78516 19.9219 7.51953Q24.5605 10.2539 30.1758 10.2539ZM30.1758 3.90625Q26.3184 3.90625 23.1201 2.02637Q19.9219 0.146484 18.042-3.05176Q16.1621-6.25 16.1621-10.1074Q16.1621-13.6719 17.8223-16.748Q19.4824-19.8242 22.4609-21.7773Q23.291-22.3633 23.6572-22.9492Q24.0234-23.5352 24.0234-24.6582L24.0234-60.9863Q24.0234-64.4043 25.7324-66.4795Q27.4414-68.5547 30.1758-68.5547Q32.8613-68.5547 34.5459-66.4795Q36.2305-64.4043 36.2305-60.9863L36.2305-24.6582Q36.2305-23.5352 36.5967-22.9492Q36.9629-22.3633 37.8418-21.7773Q40.8203-19.8242 42.4805-16.748Q44.1406-13.6719 44.1406-10.1074Q44.1406-6.25 42.2607-3.05176Q40.3809 0.146484 37.207 2.02637Q34.0332 3.90625 30.1758 3.90625ZM30.127-1.26953Q33.8379-1.26953 36.4258-3.85742Q39.0137-6.44531 39.0137-10.1562Q39.0137-12.7441 37.6953-14.7705Q36.377-16.7969 34.2773-17.9199Q33.3496-18.4082 33.0078-18.9453Q32.666-19.4824 32.666-20.8008L32.666-41.3574Q32.666-42.7734 31.9336-43.5791Q31.2012-44.3848 30.127-44.3848Q29.1016-44.3848 28.3691-43.5791Q27.6367-42.7734 27.6367-41.3574L27.6367-20.8008Q27.6367-19.4824 27.2949-18.9453Q26.9531-18.4082 26.0254-17.9199Q23.9258-16.7969 22.6074-14.7705Q21.2891-12.7441 21.2891-10.1562Q21.2891-6.44531 23.877-3.85742Q26.4648-1.26953 30.127-1.26953Z"/>
   <path class="multicolor-0:white hierarchical-0:secondary SFSymbolsPreviewFFFFFF" d="M50.0977-60.7422L58.5449-60.7422Q59.668-60.7422 60.3516-61.499Q61.0352-62.2559 61.0352-63.2324Q61.0352-64.2578 60.3516-65.0146Q59.668-65.7715 58.5449-65.7715L50.0977-65.7715Q48.9258-65.7715 48.2422-65.0146Q47.5586-64.2578 47.5586-63.2324Q47.5586-62.2559 48.2422-61.499Q48.9258-60.7422 50.0977-60.7422ZM50.0977-39.2578L58.5449-39.2578Q59.668-39.2578 60.3516-40.0146Q61.0352-40.7715 61.0352-41.748Q61.0352-42.7734 60.3516-43.5303Q59.668-44.2871 58.5449-44.2871L50.0977-44.2871Q48.9258-44.2871 48.2422-43.5303Q47.5586-42.7734 47.5586-41.748Q47.5586-40.7715 48.2422-40.0146Q48.9258-39.2578 50.0977-39.2578ZM50.0977-28.5156L58.5449-28.5156Q59.668-28.5156 60.3516-29.2725Q61.0352-30.0293 61.0352-31.0059Q61.0352-32.0312 60.3516-32.7881Q59.668-33.5449 58.5449-33.5449L50.0977-33.5449Q48.9258-33.5449 48.2422-32.7881Q47.5586-32.0312 47.5586-31.0059Q47.5586-30.0293 48.2422-29.2725Q48.9258-28.5156 50.0977-28.5156ZM50.0977-50L58.5449-50Q59.668-50 60.3516-50.7568Q61.0352-51.5137 61.0352-52.4902Q61.0352-53.5156 60.3516-54.2725Q59.668-55.0293 58.5449-55.0293L50.0977-55.0293Q48.9258-55.0293 48.2422-54.2725Q47.5586-53.5156 47.5586-52.4902Q47.5586-51.5137 48.2422-50.7568Q48.9258-50 50.0977-50Z"/>
  </g>
  <g id="Ultralight-S" transform="matrix(1 0 0 1 531.717 696)">
   <path class="multicolor-0:white hierarchical-1:primary SFSymbolsPreviewFFFFFF" d="M27.9961 9.66339Q33.0666 9.66339 37.204 7.20139Q41.3414 4.73938 43.7824 0.600433Q46.2234-3.53851 46.2234-8.51822Q46.2234-12.5946 44.532-16.0904Q42.8406-19.5862 39.3318-22.3938Q37.9044-23.4993 37.9044-25.5867L37.9532-62.7777Q37.9532-66.2437 36.7085-68.8431Q35.4637-71.4424 33.2466-72.8561Q31.0295-74.2699 27.9961-74.2699Q23.4711-74.2699 20.7535-71.1441Q18.0359-68.0183 18.0359-62.7777L18.0847-25.5867Q18.0847-23.4993 16.6573-22.3938Q13.1485-19.5862 11.4571-16.0904Q9.76562-12.5946 9.76562-8.51822Q9.76562-3.53851 12.2066 0.600433Q14.6477 4.73938 18.7866 7.20139Q22.9256 9.66339 27.9961 9.66339ZM27.9961 7.63016Q23.5481 7.63016 19.873 5.43213Q16.198 3.2341 14.0232-0.418091Q11.8484-4.07028 11.8484-8.51822Q11.8484-12.1735 13.3949-15.4083Q14.9414-18.6432 18.2381-21.0052Q19.2947-21.7278 19.7292-22.6997Q20.1637-23.6717 20.1637-24.9763L20.1637-62.6663Q20.1637-67.1288 22.3495-69.6354Q24.5354-72.142 27.9961-72.142Q31.4537-72.142 33.6376-69.6354Q35.8215-67.1288 35.8215-62.6663L35.8215-24.9763Q35.8215-23.6717 36.256-22.6997Q36.6905-21.7278 37.751-21.0052Q41.0477-18.6432 42.5941-15.4083Q44.1406-12.1735 44.1406-8.51822Q44.1406-4.07028 41.943-0.418091Q39.7453 3.2341 36.0947 5.43213Q32.444 7.63016 27.9961 7.63016ZM27.993 2.49939Q32.5661 2.49939 35.767-0.72403Q38.9679-3.94745 38.9679-8.52127Q38.9679-11.7455 37.3318-14.2712Q35.6956-16.7969 33.0513-18.1923Q31.987-18.7714 31.5544-19.4447Q31.1218-20.118 31.1218-21.7087L31.1218-41.539Q31.1218-43.0008 30.2532-43.988Q29.3846-44.9753 27.993-44.9753Q26.6037-44.9753 25.7351-43.988Q24.8665-43.0008 24.8665-41.539L24.8665-21.7087Q24.8665-20.118 24.4339-19.4447Q24.0013-18.7714 22.9378-18.1923Q20.2927-16.7969 18.6565-14.2712Q17.0204-11.7455 17.0204-8.52127Q17.0204-3.94745 20.2213-0.72403Q23.4222 2.49939 27.993 2.49939Z"/>
   <path class="multicolor-0:white hierarchical-0:secondary SFSymbolsPreviewFFFFFF" d="M43.9674-60.9695L51.6426-60.9695Q52.0844-60.9695 52.4273-61.2495Q52.7702-61.5295 52.7702-61.9606Q52.7702-62.3962 52.4273-62.6987Q52.0844-63.0013 51.6426-63.0013L43.9674-63.0013Q43.4769-63.0013 43.1564-62.6987Q42.836-62.3962 42.836-61.9606Q42.836-61.5295 43.1564-61.2495Q43.4769-60.9695 43.9674-60.9695ZM43.9674-39.4852L51.6426-39.4852Q52.0844-39.4852 52.4273-39.7652Q52.7702-40.0452 52.7702-40.4762Q52.7702-40.9119 52.4273-41.2144Q52.0844-41.5169 51.6426-41.5169L43.9674-41.5169Q43.4769-41.5169 43.1564-41.2144Q42.836-40.9119 42.836-40.4762Q42.836-40.0452 43.1564-39.7652Q43.4769-39.4852 43.9674-39.4852ZM43.9674-28.743L51.6426-28.743Q52.0844-28.743 52.4273-29.023Q52.7702-29.303 52.7702-29.734Q52.7702-30.1697 52.4273-30.4722Q52.0844-30.7747 51.6426-30.7747L43.9674-30.7747Q43.4769-30.7747 43.1564-30.4722Q42.836-30.1697 42.836-29.734Q42.836-29.303 43.1564-29.023Q43.4769-28.743 43.9674-28.743ZM43.9674-50.2274L51.6426-50.2274Q52.0844-50.2274 52.4273-50.5074Q52.7702-50.7874 52.7702-51.2184Q52.7702-51.6541 52.4273-51.9566Q52.0844-52.2591 51.6426-52.2591L43.9674-52.2591Q43.4769-52.2591 43.1564-51.9566Q42.836-51.6541 42.836-51.2184Q42.836-50.7874 43.1564-50.5074Q43.4769-50.2274 43.9674-50.2274Z"/>
  </g>
 </g>
</svg>
