<?xml version="1.0" encoding="UTF-8"?>
<!--Generator: Apple Native CoreSVG 175-->
<!DOCTYPE svg
PUBLIC "-//W3C//DTD SVG 1.1//EN"
       "http://www.w3.org/Graphics/SVG/1.1/DTD/svg11.dtd">
<svg version="1.1" xmlns="http://www.w3.org/2000/svg" xmlns:xlink="http://www.w3.org/1999/xlink" width="3300" height="2200">
 <!--glyph: "uni1001B4.medium", point size: 100.0, font version: "17.1d1e1", template writer version: "65.1"-->
 <style>.multicolor-0:systemYellowColor {fill:#FFCC00;opacity:1.0}
.multicolor-1:white {fill:#FFFFFF;opacity:1.0}

.hierarchical-0:secondary {fill:#4D4D4D}
.hierarchical-1:primary {fill:#212121}

.SFSymbolsPreviewFFCC00 {fill:#FFCC00;opacity:1.0}
.SFSymbolsPreviewFFFFFF {fill:#FFFFFF;opacity:1.0}
</style>
 <g id="Notes">
  <rect height="2200" id="artboard" style="fill:white;opacity:1" width="3300" x="0" y="0"/>
  <line style="fill:none;stroke:black;opacity:1;stroke-width:0.5;" x1="263" x2="3036" y1="292" y2="292"/>
  <text style="stroke:none;fill:black;font-family:sans-serif;font-size:13;font-weight:bold;" transform="matrix(1 0 0 1 263 322)">Weight/Scale Variations</text>
  <text style="stroke:none;fill:black;font-family:sans-serif;font-size:13;text-anchor:middle;" transform="matrix(1 0 0 1 559.711 322)">Ultralight</text>
  <text style="stroke:none;fill:black;font-family:sans-serif;font-size:13;text-anchor:middle;" transform="matrix(1 0 0 1 856.422 322)">Thin</text>
  <text style="stroke:none;fill:black;font-family:sans-serif;font-size:13;text-anchor:middle;" transform="matrix(1 0 0 1 1153.13 322)">Light</text>
  <text style="stroke:none;fill:black;font-family:sans-serif;font-size:13;text-anchor:middle;" transform="matrix(1 0 0 1 1449.84 322)">Regular</text>
  <text style="stroke:none;fill:black;font-family:sans-serif;font-size:13;text-anchor:middle;" transform="matrix(1 0 0 1 1746.56 322)">Medium</text>
  <text style="stroke:none;fill:black;font-family:sans-serif;font-size:13;text-anchor:middle;" transform="matrix(1 0 0 1 2043.27 322)">Semibold</text>
  <text style="stroke:none;fill:black;font-family:sans-serif;font-size:13;text-anchor:middle;" transform="matrix(1 0 0 1 2339.98 322)">Bold</text>
  <text style="stroke:none;fill:black;font-family:sans-serif;font-size:13;text-anchor:middle;" transform="matrix(1 0 0 1 2636.69 322)">Heavy</text>
  <text style="stroke:none;fill:black;font-family:sans-serif;font-size:13;text-anchor:middle;" transform="matrix(1 0 0 1 2933.4 322)">Black</text>
  <line style="fill:none;stroke:black;opacity:1;stroke-width:0.5;" x1="263" x2="3036" y1="1903" y2="1903"/>
  <g transform="matrix(1 0 0 1 263 1933)">
   <path d="M9.24805 0.830078Q10.8691 0.830078 12.2949 0.214844Q13.7207-0.400391 14.8096-1.49414Q15.8984-2.58789 16.5186-4.01367Q17.1387-5.43945 17.1387-7.05078Q17.1387-8.66211 16.5186-10.0879Q15.8984-11.5137 14.8047-12.6074Q13.7109-13.7012 12.2852-14.3164Q10.8594-14.9316 9.23828-14.9316Q7.62695-14.9316 6.20117-14.3164Q4.77539-13.7012 3.69141-12.6074Q2.60742-11.5137 1.9873-10.0879Q1.36719-8.66211 1.36719-7.05078Q1.36719-5.43945 1.9873-4.01367Q2.60742-2.58789 3.69629-1.49414Q4.78516-0.400391 6.21094 0.214844Q7.63672 0.830078 9.24805 0.830078ZM9.24805-0.654297Q7.91992-0.654297 6.7627-1.14746Q5.60547-1.64062 4.73145-2.51953Q3.85742-3.39844 3.36426-4.56055Q2.87109-5.72266 2.87109-7.05078Q2.87109-8.37891 3.35938-9.54102Q3.84766-10.7031 4.72168-11.582Q5.5957-12.4609 6.75293-12.9541Q7.91016-13.4473 9.23828-13.4473Q10.5762-13.4473 11.7334-12.9541Q12.8906-12.4609 13.7695-11.582Q14.6484-10.7031 15.1465-9.54102Q15.6445-8.37891 15.6445-7.05078Q15.6445-5.72266 15.1514-4.56055Q14.6582-3.39844 13.7842-2.51953Q12.9102-1.64062 11.748-1.14746Q10.5859-0.654297 9.24805-0.654297ZM5.6543-7.05078Q5.6543-6.72852 5.85938-6.52832Q6.06445-6.32812 6.40625-6.32812L8.51562-6.32812L8.51562-4.20898Q8.51562-3.88672 8.71094-3.67676Q8.90625-3.4668 9.23828-3.4668Q9.56055-3.4668 9.77051-3.67676Q9.98047-3.88672 9.98047-4.20898L9.98047-6.32812L12.0898-6.32812Q12.4219-6.32812 12.627-6.52832Q12.832-6.72852 12.832-7.05078Q12.832-7.38281 12.627-7.58789Q12.4219-7.79297 12.0898-7.79297L9.98047-7.79297L9.98047-9.90234Q9.98047-10.2344 9.77051-10.4443Q9.56055-10.6543 9.23828-10.6543Q8.90625-10.6543 8.71094-10.4443Q8.51562-10.2344 8.51562-9.90234L8.51562-7.79297L6.40625-7.79297Q6.06445-7.79297 5.85938-7.58789Q5.6543-7.38281 5.6543-7.05078Z"/>
  </g>
  <g transform="matrix(1 0 0 1 281.867 1933)">
   <path d="M11.709 2.91016Q13.75 2.91016 15.5518 2.12891Q17.3535 1.34766 18.7305-0.0292969Q20.1074-1.40625 20.8887-3.20801Q21.6699-5.00977 21.6699-7.05078Q21.6699-9.0918 20.8887-10.8936Q20.1074-12.6953 18.7305-14.0723Q17.3535-15.4492 15.5469-16.2305Q13.7402-17.0117 11.6992-17.0117Q9.6582-17.0117 7.85645-16.2305Q6.05469-15.4492 4.68262-14.0723Q3.31055-12.6953 2.5293-10.8936Q1.74805-9.0918 1.74805-7.05078Q1.74805-5.00977 2.5293-3.20801Q3.31055-1.40625 4.6875-0.0292969Q6.06445 1.34766 7.86621 2.12891Q9.66797 2.91016 11.709 2.91016ZM11.709 1.25Q9.98047 1.25 8.47656 0.605469Q6.97266-0.0390625 5.83496-1.17676Q4.69727-2.31445 4.05762-3.81836Q3.41797-5.32227 3.41797-7.05078Q3.41797-8.7793 4.05762-10.2832Q4.69727-11.7871 5.83008-12.9297Q6.96289-14.0723 8.4668-14.7119Q9.9707-15.3516 11.6992-15.3516Q13.4277-15.3516 14.9316-14.7119Q16.4355-14.0723 17.5781-12.9297Q18.7207-11.7871 19.3652-10.2832Q20.0098-8.7793 20.0098-7.05078Q20.0098-5.32227 19.3701-3.81836Q18.7305-2.31445 17.5928-1.17676Q16.4551-0.0390625 14.9463 0.605469Q13.4375 1.25 11.709 1.25ZM7.17773-7.05078Q7.17773-6.69922 7.41211-6.47461Q7.64648-6.25 8.01758-6.25L10.8887-6.25L10.8887-3.36914Q10.8887-2.99805 11.1133-2.76855Q11.3379-2.53906 11.6895-2.53906Q12.0605-2.53906 12.29-2.76855Q12.5195-2.99805 12.5195-3.36914L12.5195-6.25L15.4004-6.25Q15.7715-6.25 16.001-6.47461Q16.2305-6.69922 16.2305-7.05078Q16.2305-7.42188 16.001-7.65137Q15.7715-7.88086 15.4004-7.88086L12.5195-7.88086L12.5195-10.752Q12.5195-11.1328 12.29-11.3623Q12.0605-11.5918 11.6895-11.5918Q11.3379-11.5918 11.1133-11.3574Q10.8887-11.123 10.8887-10.752L10.8887-7.88086L8.01758-7.88086Q7.63672-7.88086 7.40723-7.65137Q7.17773-7.42188 7.17773-7.05078Z"/>
  </g>
  <g transform="matrix(1 0 0 1 305.646 1933)">
   <path d="M14.9707 5.66406Q17.0605 5.66406 18.96 5.01465Q20.8594 4.36523 22.4512 3.19336Q24.043 2.02148 25.2197 0.429688Q26.3965-1.16211 27.0459-3.06641Q27.6953-4.9707 27.6953-7.05078Q27.6953-9.14062 27.0459-11.04Q26.3965-12.9395 25.2197-14.5312Q24.043-16.123 22.4512-17.2998Q20.8594-18.4766 18.9551-19.126Q17.0508-19.7754 14.9609-19.7754Q12.8711-19.7754 10.9717-19.126Q9.07227-18.4766 7.48535-17.2998Q5.89844-16.123 4.72168-14.5312Q3.54492-12.9395 2.90039-11.04Q2.25586-9.14062 2.25586-7.05078Q2.25586-4.9707 2.90527-3.06641Q3.55469-1.16211 4.72656 0.429688Q5.89844 2.02148 7.49023 3.19336Q9.08203 4.36523 10.9814 5.01465Q12.8809 5.66406 14.9707 5.66406ZM14.9707 3.84766Q13.1641 3.84766 11.5283 3.2959Q9.89258 2.74414 8.53516 1.74805Q7.17773 0.751953 6.17676-0.610352Q5.17578-1.97266 4.62891-3.6084Q4.08203-5.24414 4.08203-7.05078Q4.08203-8.86719 4.62891-10.5029Q5.17578-12.1387 6.17188-13.501Q7.16797-14.8633 8.52539-15.8594Q9.88281-16.8555 11.5186-17.4023Q13.1543-17.9492 14.9609-17.9492Q16.7773-17.9492 18.4131-17.4023Q20.0488-16.8555 21.4111-15.8594Q22.7734-14.8633 23.7695-13.501Q24.7656-12.1387 25.3174-10.5029Q25.8691-8.86719 25.8691-7.05078Q25.8789-5.24414 25.332-3.6084Q24.7852-1.97266 23.7842-0.610352Q22.7832 0.751953 21.4209 1.74805Q20.0586 2.74414 18.4229 3.2959Q16.7871 3.84766 14.9707 3.84766ZM9.19922-7.05078Q9.19922-6.66992 9.45801-6.4209Q9.7168-6.17188 10.1172-6.17188L14.0625-6.17188L14.0625-2.2168Q14.0625-1.81641 14.3115-1.55762Q14.5605-1.29883 14.9512-1.29883Q15.3516-1.29883 15.6104-1.55273Q15.8691-1.80664 15.8691-2.2168L15.8691-6.17188L19.8242-6.17188Q20.2246-6.17188 20.4785-6.4209Q20.7324-6.66992 20.7324-7.05078Q20.7324-7.46094 20.4785-7.71484Q20.2246-7.96875 19.8242-7.96875L15.8691-7.96875L15.8691-11.9141Q15.8691-12.3242 15.6104-12.583Q15.3516-12.8418 14.9512-12.8418Q14.5605-12.8418 14.3115-12.583Q14.0625-12.3242 14.0625-11.9141L14.0625-7.96875L10.1172-7.96875Q9.70703-7.96875 9.45312-7.71484Q9.19922-7.46094 9.19922-7.05078Z"/>
  </g>
  <text style="stroke:none;fill:black;font-family:sans-serif;font-size:13;font-weight:bold;" transform="matrix(1 0 0 1 263 1953)">Design Variations</text>
  <text style="stroke:none;fill:black;font-family:sans-serif;font-size:13;" transform="matrix(1 0 0 1 263 1971)">Symbols are supported in up to nine weights and three scales.</text>
  <text style="stroke:none;fill:black;font-family:sans-serif;font-size:13;" transform="matrix(1 0 0 1 263 1989)">For optimal layout with text and other symbols, vertically align</text>
  <text style="stroke:none;fill:black;font-family:sans-serif;font-size:13;" transform="matrix(1 0 0 1 263 2007)">symbols with the adjacent text.</text>
  <line style="fill:none;stroke:#00AEEF;stroke-width:0.5;opacity:1.0;" x1="776" x2="776" y1="1919" y2="1933"/>
  <g transform="matrix(1 0 0 1 776 1933)">
   <path d="M3.31055 0.15625Q3.70117 0.15625 3.91602-0.00976562Q4.13086-0.175781 4.26758-0.585938L5.52734-4.0332L11.2891-4.0332L12.5488-0.585938Q12.6855-0.175781 12.9004-0.00976562Q13.1152 0.15625 13.4961 0.15625Q13.8867 0.15625 14.1162-0.0585938Q14.3457-0.273438 14.3457-0.644531Q14.3457-0.869141 14.2383-1.17188L9.6582-13.3691Q9.48242-13.8184 9.17969-14.043Q8.87695-14.2676 8.4082-14.2676Q7.5-14.2676 7.17773-13.3789L2.59766-1.16211Q2.49023-0.859375 2.49023-0.634766Q2.49023-0.263672 2.70996-0.0537109Q2.92969 0.15625 3.31055 0.15625ZM6.00586-5.51758L8.37891-12.0898L8.42773-12.0898L10.8008-5.51758Z"/>
  </g>
  <line style="fill:none;stroke:#00AEEF;stroke-width:0.5;opacity:1.0;" x1="793.197" x2="793.197" y1="1919" y2="1933"/>
  <text style="stroke:none;fill:black;font-family:sans-serif;font-size:13;font-weight:bold;" transform="matrix(1 0 0 1 776 1953)">Margins</text>
  <text style="stroke:none;fill:black;font-family:sans-serif;font-size:13;" transform="matrix(1 0 0 1 776 1971)">Leading and trailing margins on the left and right side of each symbol</text>
  <text style="stroke:none;fill:black;font-family:sans-serif;font-size:13;" transform="matrix(1 0 0 1 776 1989)">can be adjusted by modifying the x-location of the margin guidelines.</text>
  <text style="stroke:none;fill:black;font-family:sans-serif;font-size:13;" transform="matrix(1 0 0 1 776 2007)">Modifications are automatically applied proportionally to all</text>
  <text style="stroke:none;fill:black;font-family:sans-serif;font-size:13;" transform="matrix(1 0 0 1 776 2025)">scales and weights.</text>
  <g transform="matrix(1 0 0 1 1289 1933)">
   <path d="M2.8418 1.86523L4.54102 3.57422Q5.18555 4.22852 5.90332 4.17969Q6.62109 4.13086 7.31445 3.35938L18.0078-8.42773L17.041-9.4043L6.42578 2.27539Q6.16211 2.57812 5.89355 2.61719Q5.625 2.65625 5.27344 2.30469L4.10156 1.14258Q3.75 0.791016 3.79395 0.522461Q3.83789 0.253906 4.14062-0.0195312L15.6152-10.8203L14.6387-11.7871L3.04688-0.898438Q2.30469-0.214844 2.25098 0.498047Q2.19727 1.21094 2.8418 1.86523ZM9.25781-16.3281Q8.94531-16.0254 8.90625-15.6348Q8.86719-15.2441 9.04297-14.9512Q9.21875-14.6777 9.55566-14.541Q9.89258-14.4043 10.3809-14.5215Q11.4746-14.7754 12.5977-14.7314Q13.7207-14.6875 14.7949-13.9844L14.209-12.5293Q13.9551-11.9043 14.0674-11.4404Q14.1797-10.9766 14.5801-10.5664L16.875-8.25195Q17.2363-7.88086 17.5781-7.82227Q17.9199-7.76367 18.3398-7.8418L19.4043-8.03711L20.0684-7.36328L20.0293-6.80664Q20-6.43555 20.1221-6.12305Q20.2441-5.81055 20.6055-5.44922L21.3672-4.70703Q21.7285-4.3457 22.1533-4.33105Q22.5781-4.31641 22.9297-4.66797L25.8398-7.58789Q26.1914-7.93945 26.1816-8.35449Q26.1719-8.76953 25.8105-9.13086L25.0391-9.89258Q24.6875-10.2539 24.3799-10.3857Q24.0723-10.5176 23.7109-10.4883L23.1348-10.4395L22.4902-11.0742L22.7344-12.1973Q22.832-12.6172 22.6953-12.9834Q22.5586-13.3496 22.1191-13.7891L19.9219-15.9766Q18.6719-17.2168 17.2607-17.8369Q15.8496-18.457 14.4189-18.4814Q12.9883-18.5059 11.665-17.959Q10.3418-17.4121 9.25781-16.3281ZM10.752-15.957Q11.6602-16.6211 12.7002-16.9043Q13.7402-17.1875 14.8047-17.085Q15.8691-16.9824 16.8701-16.5137Q17.8711-16.0449 18.7012-15.2051L21.1328-12.793Q21.3086-12.6172 21.3525-12.4512Q21.3965-12.2852 21.3379-12.0312L21.0156-10.5469L22.5195-9.0625L23.5059-9.12109Q23.6914-9.13086 23.7891-9.09668Q23.8867-9.0625 24.0332-8.91602L24.6094-8.33984L22.168-5.89844L21.5918-6.47461Q21.4453-6.62109 21.4062-6.71875Q21.3672-6.81641 21.377-7.01172L21.4453-7.98828L19.9512-9.47266L18.4277-9.21875Q18.1836-9.16992 18.042-9.2041Q17.9004-9.23828 17.7148-9.41406L15.7129-11.416Q15.5176-11.5918 15.4932-11.7529Q15.4688-11.9141 15.5859-12.1875L16.4648-14.2773Q15.293-15.3711 13.8281-15.791Q12.3633-16.2109 10.8398-15.7617Q10.7227-15.7324 10.6885-15.8057Q10.6543-15.8789 10.752-15.957Z"/>
  </g>
  <text style="stroke:none;fill:black;font-family:sans-serif;font-size:13;font-weight:bold;" transform="matrix(1 0 0 1 1289 1953)">Exporting</text>
  <text style="stroke:none;fill:black;font-family:sans-serif;font-size:13;" transform="matrix(1 0 0 1 1289 1971)">Symbols should be outlined when exporting to ensure the</text>
  <text style="stroke:none;fill:black;font-family:sans-serif;font-size:13;" transform="matrix(1 0 0 1 1289 1989)">design is preserved when submitting to Xcode.</text>
  <text id="template-version" style="stroke:none;fill:black;font-family:sans-serif;font-size:13;text-anchor:end;" transform="matrix(1 0 0 1 3036 1933)">Template v.3.0</text>
  <text style="stroke:none;fill:black;font-family:sans-serif;font-size:13;text-anchor:end;" transform="matrix(1 0 0 1 3036 1951)">Requires Xcode 13 or greater</text>
  <text id="descriptive-name" style="stroke:none;fill:black;font-family:sans-serif;font-size:13;text-anchor:end;" transform="matrix(1 0 0 1 3036 1969)">Generated from sunset.fill</text>
  <text style="stroke:none;fill:black;font-family:sans-serif;font-size:13;text-anchor:end;" transform="matrix(1 0 0 1 3036 1987)">Typeset at 100 points</text>
  <text style="stroke:none;fill:black;font-family:sans-serif;font-size:13;" transform="matrix(1 0 0 1 263 726)">Small</text>
  <text style="stroke:none;fill:black;font-family:sans-serif;font-size:13;" transform="matrix(1 0 0 1 263 1156)">Medium</text>
  <text style="stroke:none;fill:black;font-family:sans-serif;font-size:13;" transform="matrix(1 0 0 1 263 1586)">Large</text>
 </g>
 <g id="Guides">
  <g id="H-reference" style="fill:#27AAE1;stroke:none;" transform="matrix(1 0 0 1 339 696)">
   <path d="M0.993347 0L3.6377 0L29.3282-67.1326L30.0301-67.1326L30.0301-70.459L28.1227-70.459ZM11.6882-24.4797L46.9818-24.4797L46.2311-26.7288L12.4382-26.7288ZM55.1193 0L57.7637 0L30.6381-70.459L29.4327-70.459L29.4327-67.1326Z"/>
  </g>
  <line id="Baseline-S" style="fill:none;stroke:#27AAE1;opacity:1;stroke-width:0.5;" x1="263" x2="3036" y1="696" y2="696"/>
  <line id="Capline-S" style="fill:none;stroke:#27AAE1;opacity:1;stroke-width:0.5;" x1="263" x2="3036" y1="625.541" y2="625.541"/>
  <g id="H-reference" style="fill:#27AAE1;stroke:none;" transform="matrix(1 0 0 1 339 1126)">
   <path d="M0.993347 0L3.6377 0L29.3282-67.1326L30.0301-67.1326L30.0301-70.459L28.1227-70.459ZM11.6882-24.4797L46.9818-24.4797L46.2311-26.7288L12.4382-26.7288ZM55.1193 0L57.7637 0L30.6381-70.459L29.4327-70.459L29.4327-67.1326Z"/>
  </g>
  <line id="Baseline-M" style="fill:none;stroke:#27AAE1;opacity:1;stroke-width:0.5;" x1="263" x2="3036" y1="1126" y2="1126"/>
  <line id="Capline-M" style="fill:none;stroke:#27AAE1;opacity:1;stroke-width:0.5;" x1="263" x2="3036" y1="1055.54" y2="1055.54"/>
  <g id="H-reference" style="fill:#27AAE1;stroke:none;" transform="matrix(1 0 0 1 339 1556)">
   <path d="M0.993347 0L3.6377 0L29.3282-67.1326L30.0301-67.1326L30.0301-70.459L28.1227-70.459ZM11.6882-24.4797L46.9818-24.4797L46.2311-26.7288L12.4382-26.7288ZM55.1193 0L57.7637 0L30.6381-70.459L29.4327-70.459L29.4327-67.1326Z"/>
  </g>
  <line id="Baseline-L" style="fill:none;stroke:#27AAE1;opacity:1;stroke-width:0.5;" x1="263" x2="3036" y1="1556" y2="1556"/>
  <line id="Capline-L" style="fill:none;stroke:#27AAE1;opacity:1;stroke-width:0.5;" x1="263" x2="3036" y1="1485.54" y2="1485.54"/>
  <line id="left-margin-Ultralight-S" style="fill:none;stroke:#00AEEF;stroke-width:0.5;opacity:1.0;" x1="500.922" x2="500.922" y1="600.785" y2="720.121"/>
  <line id="right-margin-Ultralight-S" style="fill:none;stroke:#00AEEF;stroke-width:0.5;opacity:1.0;" x1="618.5" x2="618.5" y1="600.785" y2="720.121"/>
  <line id="left-margin-Regular-S" style="fill:none;stroke:#00AEEF;stroke-width:0.5;opacity:1.0;" x1="1391.06" x2="1391.06" y1="600.785" y2="720.121"/>
  <line id="right-margin-Regular-S" style="fill:none;stroke:#00AEEF;stroke-width:0.5;opacity:1.0;" x1="1508.63" x2="1508.63" y1="600.785" y2="720.121"/>
  <line id="left-margin-Black-S" style="fill:none;stroke:#00AEEF;stroke-width:0.5;opacity:1.0;" x1="2874.61" x2="2874.61" y1="600.785" y2="720.121"/>
  <line id="right-margin-Black-S" style="fill:none;stroke:#00AEEF;stroke-width:0.5;opacity:1.0;" x1="2992.19" x2="2992.19" y1="600.785" y2="720.121"/>
 </g>
 <g id="Symbols">
  <g id="Black-S" transform="matrix(1 0 0 1 2874.61 696)">
   <path class="multicolor-0:systemYellowColor hierarchical-0:secondary SFSymbolsPreviewFFCC00" d="M79.6875-20.9473Q79.6875-26.8066 76.8799-31.5674Q74.0723-36.3281 69.3359-39.1357Q64.5996-41.9434 58.7891-41.9434Q53.0273-41.9434 48.2666-39.1357Q43.5059-36.3281 40.6982-31.5674Q37.8906-26.8066 37.8906-20.9473Q37.8906-19.2871 38.0859-18.0664L79.4922-18.0664Q79.6875-19.2871 79.6875-20.9473ZM32.0801-40.7715Q33.4961-39.4043 35.5225-39.3555Q37.5488-39.3066 38.916-40.6738Q40.332-42.0898 40.3076-44.1162Q40.2832-46.1426 38.8672-47.5098L34.4238-51.9043Q33.0078-53.3203 31.0059-53.3691Q29.0039-53.418 27.5879-52.002Q26.2207-50.6348 26.2207-48.584Q26.2207-46.5332 27.6367-45.1172ZM78.6621-40.6738Q80.0781-39.3066 82.1045-39.3555Q84.1309-39.4043 85.498-40.7715L89.9414-45.1172Q91.3574-46.5332 91.3818-48.584Q91.4062-50.6348 89.9902-52.002Q88.623-53.418 86.5967-53.3691Q84.5703-53.3203 83.1543-51.9043L78.7109-47.5098Q77.3438-46.1426 77.3193-44.1162Q77.2949-42.0898 78.6621-40.6738ZM19.5312-19.9219L25.7812-19.873Q27.7832-19.873 29.2236-21.3135Q30.6641-22.7539 30.6641-24.707Q30.6641-26.709 29.2236-28.1006Q27.7832-29.4922 25.7812-29.4922L19.5312-29.4922Q17.5781-29.4922 16.1133-28.1006Q14.6484-26.709 14.6484-24.707Q14.6484-22.7539 16.1133-21.3379Q17.5781-19.9219 19.5312-19.9219ZM91.7969-19.9219L98.0469-19.9219Q100.049-19.9219 101.489-21.3379Q102.93-22.7539 102.93-24.707Q102.93-26.709 101.489-28.1006Q100.049-29.4922 98.0469-29.4922L91.7969-29.4922Q89.8438-29.4922 88.3789-28.1006Q86.9141-26.709 86.9141-24.707Q86.9141-22.7539 88.3789-21.3379Q89.8438-19.9219 91.7969-19.9219Z"/>
   <path class="multicolor-1:white hierarchical-1:primary SFSymbolsPreviewFFFFFF" d="M15.8691 1.46484L101.709 1.46484Q104.297 1.46484 106.055-0.463867Q107.812-2.39258 107.812-4.88281Q107.812-7.4707 106.055-9.35059Q104.297-11.2305 101.709-11.2305L15.8691-11.2305Q13.3301-11.2305 11.5479-9.32617Q9.76562-7.42188 9.76562-4.88281Q9.76562-2.49023 11.5479-0.512695Q13.3301 1.46484 15.8691 1.46484ZM58.7891-83.0078Q56.8359-83.0078 55.4199-81.5674Q54.0039-80.127 54.0039-78.125L54.0527-68.2617L55.0293-60.9863L52.7832-64.8438L50.293-67.9688Q49.5117-68.9453 48.584-69.6289Q47.6562-70.3125 46.2402-70.3125Q44.2871-70.3125 42.9932-68.9941Q41.6992-67.6758 41.6992-65.8691Q41.6992-64.6484 42.3828-63.5986Q43.0664-62.5488 43.9941-61.6211L55.0293-51.0742Q56.7383-49.4141 58.7891-49.4141Q60.8398-49.4141 62.5488-51.0742L73.584-61.6211Q74.5605-62.5488 75.2197-63.5986Q75.8789-64.6484 75.8789-65.8691Q75.8789-67.6758 74.585-68.9941Q73.291-70.3125 71.3379-70.3125Q69.9707-70.3125 69.0186-69.6289Q68.0664-68.9453 67.2852-67.9688L64.7949-64.8438L62.5488-60.9863L63.5254-68.2617L63.5742-78.125Q63.5742-80.127 62.1826-81.5674Q60.791-83.0078 58.7891-83.0078Z"/>
  </g>
  <g id="Regular-S" transform="matrix(1 0 0 1 1391.06 696)">
   <path class="multicolor-0:systemYellowColor hierarchical-0:secondary SFSymbolsPreviewFFCC00" d="M79.7363-22.5098Q79.7363-28.2227 76.8799-33.0078Q74.0234-37.793 69.2627-40.6494Q64.502-43.5059 58.7891-43.5059Q53.0762-43.5059 48.3154-40.6494Q43.5547-37.793 40.6982-33.0078Q37.8418-28.2227 37.8418-22.5098Q37.8418-18.7988 39.1602-15.2832L78.418-15.2832Q79.7363-18.7988 79.7363-22.5098ZM33.7402-42.4316Q34.9609-41.2109 36.499-41.1621Q38.0371-41.1133 39.0625-42.1875Q40.0879-43.2129 40.0391-44.751Q39.9902-46.2891 38.7695-47.5098L32.8613-53.418Q31.6406-54.6387 30.1514-54.6631Q28.6621-54.6875 27.5879-53.6621Q26.5137-52.6367 26.5381-51.0986Q26.5625-49.5605 27.832-48.3398ZM78.5156-42.1875Q79.5898-41.1621 81.1035-41.1865Q82.6172-41.2109 83.8379-42.4316L89.7461-48.3398Q90.9668-49.5605 90.9912-51.0742Q91.0156-52.5879 89.9902-53.6621Q88.9648-54.6875 87.4512-54.6631Q85.9375-54.6387 84.7168-53.418L78.8086-47.5098Q77.5879-46.2891 77.5146-44.751Q77.4414-43.2129 78.5156-42.1875ZM18.6035-19.873L26.9531-19.873Q28.6621-19.873 29.8096-20.9229Q30.957-21.9727 30.9082-23.4375Q30.8594-24.9023 29.7607-25.9521Q28.6621-27.002 26.9531-27.002L18.6035-27.002Q16.8457-27.002 15.7471-25.9521Q14.6484-24.9023 14.6484-23.4375Q14.6484-21.9727 15.7471-20.9229Q16.8457-19.873 18.6035-19.873ZM90.625-19.873L98.9746-19.873Q100.732-19.873 101.831-20.9229Q102.93-21.9727 102.93-23.4375Q102.93-24.9023 101.831-25.9521Q100.732-27.002 98.9746-27.002L90.625-27.002Q88.916-27.002 87.7686-25.9521Q86.6211-24.9023 86.6699-23.4375Q86.7188-21.9727 87.8174-20.9229Q88.916-19.873 90.625-19.873Z"/>
   <path class="multicolor-1:white hierarchical-1:primary SFSymbolsPreviewFFFFFF" d="M13.5742-3.4668L104.004-3.4668Q105.566-3.4668 106.689-4.49219Q107.812-5.51758 107.812-6.98242Q107.812-8.39844 106.689-9.44824Q105.566-10.498 104.004-10.498L13.5742-10.498Q12.0117-10.498 10.8887-9.44824Q9.76562-8.39844 9.76562-6.98242Q9.76562-5.51758 10.8887-4.49219Q12.0117-3.4668 13.5742-3.4668ZM58.7891-84.5703Q57.3242-84.5703 56.2744-83.4473Q55.2246-82.3242 55.2246-80.7129L55.2246-66.7969L55.7617-61.2793L53.7109-63.8184L48.8281-68.7012Q48.3887-69.1895 47.7783-69.458Q47.168-69.7266 46.5332-69.7266Q45.2148-69.7266 44.3848-68.9209Q43.5547-68.1152 43.5547-66.8457Q43.5547-66.1621 43.7988-65.625Q44.043-65.0879 44.5312-64.5996L56.4453-53.7109Q57.666-52.5879 58.7891-52.5879Q59.9121-52.5879 61.1328-53.7109L73.0469-64.5996Q73.5352-65.0879 73.7793-65.625Q74.0234-66.1621 74.0234-66.8457Q74.0234-68.1152 73.1934-68.9209Q72.3633-69.7266 71.0449-69.7266Q70.4102-69.7266 69.7998-69.458Q69.1895-69.1895 68.75-68.7012L64.3555-64.3066L61.8164-61.2793L62.3535-66.7969L62.3535-80.7129Q62.3535-82.3242 61.3037-83.4473Q60.2539-84.5703 58.7891-84.5703Z"/>
  </g>
  <g id="Ultralight-S" transform="matrix(1 0 0 1 500.922 696)">
   <path class="multicolor-0:systemYellowColor hierarchical-0:secondary SFSymbolsPreviewFFCC00" d="M78.4195-22.2824Q78.4195-27.6779 75.7675-32.1449Q73.1155-36.6119 68.6497-39.2643Q64.1838-41.9167 58.7891-41.9167Q53.3943-41.9167 48.9285-39.2643Q44.4626-36.6119 41.8106-32.1449Q39.1586-27.6779 39.1586-22.2824Q39.1586-16.5283 42.2478-11.7409L75.3304-11.7409Q78.4195-16.5283 78.4195-22.2824ZM37.5999-41.9319Q37.867-41.6649 38.3152-41.6615Q38.7634-41.658 39.0625-41.9601Q39.3616-42.2592 39.3581-42.7074Q39.3547-43.1557 39.0877-43.4227L29.0466-53.4637Q28.7346-53.7758 28.2898-53.7548Q27.845-53.7338 27.5879-53.4348Q27.24-53.1364 27.219-52.7107Q27.198-52.285 27.5597-51.973ZM78.5156-41.9601Q78.8177-41.6618 79.2645-41.6634Q79.7112-41.6649 79.9782-41.9319L90.0185-51.973Q90.3763-52.285 90.3553-52.7088Q90.3343-53.1326 89.9902-53.4348Q89.7369-53.7338 89.2902-53.7548Q88.8435-53.7758 88.5315-53.4637L78.4904-43.4227Q78.2234-43.1557 78.2185-42.7074Q78.2135-42.2592 78.5156-41.9601ZM15.6975-22.1436L29.8592-22.1436Q30.3421-22.1436 30.6267-22.4667Q30.9113-22.7898 30.9082-23.2101Q30.9052-23.6305 30.6011-23.954Q30.2971-24.2775 29.8592-24.2775L15.6975-24.2775Q15.2565-24.2775 14.9525-23.954Q14.6484-23.6305 14.6484-23.2101Q14.6484-22.7898 14.9525-22.4667Q15.2565-22.1436 15.6975-22.1436ZM87.719-22.1436L101.881-22.1436Q102.322-22.1436 102.626-22.4667Q102.93-22.7898 102.93-23.2101Q102.93-23.6305 102.626-23.954Q102.322-24.2775 101.881-24.2775L87.719-24.2775Q87.281-24.2775 86.974-23.954Q86.6669-23.6305 86.6699-23.2101Q86.673-22.7898 86.977-22.4667Q87.281-22.1436 87.719-22.1436Z"/>
   <path class="multicolor-1:white hierarchical-1:primary SFSymbolsPreviewFFFFFF" d="M10.9856-6.55441L106.593-6.55441Q107.111-6.55441 107.462-6.87599Q107.812-7.19757 107.812-7.61795Q107.812-8.08029 107.462-8.38089Q107.111-8.68149 106.593-8.68149L10.9856-8.68149Q10.4675-8.68149 10.1166-8.38089Q9.76562-8.08029 9.76562-7.61795Q9.76562-7.19757 10.1166-6.87599Q10.4675-6.55441 10.9856-6.55441ZM58.7891-80.6198Q58.3229-80.6198 57.9998-80.2914Q57.6767-79.9629 57.6767-79.4868L57.6767-63.2545L57.8506-56.3293L53.6201-60.64L47.1024-67.2935Q46.9353-67.5095 46.711-67.5964Q46.4867-67.6834 46.3058-67.6834Q45.8504-67.6834 45.5425-67.3546Q45.2347-67.0258 45.2347-66.5733Q45.2347-66.2529 45.3655-66.011Q45.4964-65.7692 45.8031-65.4625L57.9895-53.3928Q58.3473-52.9968 58.7891-52.9968Q59.2308-52.9968 59.5886-53.3928L71.7751-65.4625Q72.0818-65.7692 72.2126-66.011Q72.3434-66.2529 72.3434-66.5733Q72.3434-67.0258 72.0356-67.3546Q71.7278-67.6834 71.2723-67.6834Q71.0915-67.6834 70.8672-67.5964Q70.6429-67.5095 70.4758-67.2935L63.9923-60.6735L59.7275-56.3293L59.9014-63.2545L59.9014-79.4868Q59.9014-79.9629 59.5783-80.2914Q59.2552-80.6198 58.7891-80.6198Z"/>
  </g>
 </g>
</svg>
