<?xml version="1.0" encoding="UTF-8"?>
<!--Generator: Apple Native CoreSVG 175-->
<!DOCTYPE svg
PUBLIC "-//W3C//DTD SVG 1.1//EN"
       "http://www.w3.org/Graphics/SVG/1.1/DTD/svg11.dtd">
<svg version="1.1" xmlns="http://www.w3.org/2000/svg" xmlns:xlink="http://www.w3.org/1999/xlink" width="3300" height="2200">
 <!--glyph: "uni1001D5.medium", point size: 100.0, font version: "17.1d1e1", template writer version: "65.1"-->
 <style>.multicolor-0:white {fill:#FFFFFF;opacity:1.0}
.multicolor-1:systemYellowColor {fill:#FFCC00;opacity:1.0}

.hierarchical-0:secondary {fill:#4D4D4D}
.hierarchical-1:primary {fill:#212121}

.SFSymbolsPreviewFFCC00 {fill:#FFCC00;opacity:1.0}
.SFSymbolsPreviewFFFFFF {fill:#FFFFFF;opacity:1.0}
</style>
 <g id="Notes">
  <rect height="2200" id="artboard" style="fill:white;opacity:1" width="3300" x="0" y="0"/>
  <line style="fill:none;stroke:black;opacity:1;stroke-width:0.5;" x1="263" x2="3036" y1="292" y2="292"/>
  <text style="stroke:none;fill:black;font-family:sans-serif;font-size:13;font-weight:bold;" transform="matrix(1 0 0 1 263 322)">Weight/Scale Variations</text>
  <text style="stroke:none;fill:black;font-family:sans-serif;font-size:13;text-anchor:middle;" transform="matrix(1 0 0 1 559.711 322)">Ultralight</text>
  <text style="stroke:none;fill:black;font-family:sans-serif;font-size:13;text-anchor:middle;" transform="matrix(1 0 0 1 856.422 322)">Thin</text>
  <text style="stroke:none;fill:black;font-family:sans-serif;font-size:13;text-anchor:middle;" transform="matrix(1 0 0 1 1153.13 322)">Light</text>
  <text style="stroke:none;fill:black;font-family:sans-serif;font-size:13;text-anchor:middle;" transform="matrix(1 0 0 1 1449.84 322)">Regular</text>
  <text style="stroke:none;fill:black;font-family:sans-serif;font-size:13;text-anchor:middle;" transform="matrix(1 0 0 1 1746.56 322)">Medium</text>
  <text style="stroke:none;fill:black;font-family:sans-serif;font-size:13;text-anchor:middle;" transform="matrix(1 0 0 1 2043.27 322)">Semibold</text>
  <text style="stroke:none;fill:black;font-family:sans-serif;font-size:13;text-anchor:middle;" transform="matrix(1 0 0 1 2339.98 322)">Bold</text>
  <text style="stroke:none;fill:black;font-family:sans-serif;font-size:13;text-anchor:middle;" transform="matrix(1 0 0 1 2636.69 322)">Heavy</text>
  <text style="stroke:none;fill:black;font-family:sans-serif;font-size:13;text-anchor:middle;" transform="matrix(1 0 0 1 2933.4 322)">Black</text>
  <line style="fill:none;stroke:black;opacity:1;stroke-width:0.5;" x1="263" x2="3036" y1="1903" y2="1903"/>
  <g transform="matrix(1 0 0 1 263 1933)">
   <path d="M9.24805 0.830078Q10.8691 0.830078 12.2949 0.214844Q13.7207-0.400391 14.8096-1.49414Q15.8984-2.58789 16.5186-4.01367Q17.1387-5.43945 17.1387-7.05078Q17.1387-8.66211 16.5186-10.0879Q15.8984-11.5137 14.8047-12.6074Q13.7109-13.7012 12.2852-14.3164Q10.8594-14.9316 9.23828-14.9316Q7.62695-14.9316 6.20117-14.3164Q4.77539-13.7012 3.69141-12.6074Q2.60742-11.5137 1.9873-10.0879Q1.36719-8.66211 1.36719-7.05078Q1.36719-5.43945 1.9873-4.01367Q2.60742-2.58789 3.69629-1.49414Q4.78516-0.400391 6.21094 0.214844Q7.63672 0.830078 9.24805 0.830078ZM9.24805-0.654297Q7.91992-0.654297 6.7627-1.14746Q5.60547-1.64062 4.73145-2.51953Q3.85742-3.39844 3.36426-4.56055Q2.87109-5.72266 2.87109-7.05078Q2.87109-8.37891 3.35938-9.54102Q3.84766-10.7031 4.72168-11.582Q5.5957-12.4609 6.75293-12.9541Q7.91016-13.4473 9.23828-13.4473Q10.5762-13.4473 11.7334-12.9541Q12.8906-12.4609 13.7695-11.582Q14.6484-10.7031 15.1465-9.54102Q15.6445-8.37891 15.6445-7.05078Q15.6445-5.72266 15.1514-4.56055Q14.6582-3.39844 13.7842-2.51953Q12.9102-1.64062 11.748-1.14746Q10.5859-0.654297 9.24805-0.654297ZM5.6543-7.05078Q5.6543-6.72852 5.85938-6.52832Q6.06445-6.32812 6.40625-6.32812L8.51562-6.32812L8.51562-4.20898Q8.51562-3.88672 8.71094-3.67676Q8.90625-3.4668 9.23828-3.4668Q9.56055-3.4668 9.77051-3.67676Q9.98047-3.88672 9.98047-4.20898L9.98047-6.32812L12.0898-6.32812Q12.4219-6.32812 12.627-6.52832Q12.832-6.72852 12.832-7.05078Q12.832-7.38281 12.627-7.58789Q12.4219-7.79297 12.0898-7.79297L9.98047-7.79297L9.98047-9.90234Q9.98047-10.2344 9.77051-10.4443Q9.56055-10.6543 9.23828-10.6543Q8.90625-10.6543 8.71094-10.4443Q8.51562-10.2344 8.51562-9.90234L8.51562-7.79297L6.40625-7.79297Q6.06445-7.79297 5.85938-7.58789Q5.6543-7.38281 5.6543-7.05078Z"/>
  </g>
  <g transform="matrix(1 0 0 1 281.867 1933)">
   <path d="M11.709 2.91016Q13.75 2.91016 15.5518 2.12891Q17.3535 1.34766 18.7305-0.0292969Q20.1074-1.40625 20.8887-3.20801Q21.6699-5.00977 21.6699-7.05078Q21.6699-9.0918 20.8887-10.8936Q20.1074-12.6953 18.7305-14.0723Q17.3535-15.4492 15.5469-16.2305Q13.7402-17.0117 11.6992-17.0117Q9.6582-17.0117 7.85645-16.2305Q6.05469-15.4492 4.68262-14.0723Q3.31055-12.6953 2.5293-10.8936Q1.74805-9.0918 1.74805-7.05078Q1.74805-5.00977 2.5293-3.20801Q3.31055-1.40625 4.6875-0.0292969Q6.06445 1.34766 7.86621 2.12891Q9.66797 2.91016 11.709 2.91016ZM11.709 1.25Q9.98047 1.25 8.47656 0.605469Q6.97266-0.0390625 5.83496-1.17676Q4.69727-2.31445 4.05762-3.81836Q3.41797-5.32227 3.41797-7.05078Q3.41797-8.7793 4.05762-10.2832Q4.69727-11.7871 5.83008-12.9297Q6.96289-14.0723 8.4668-14.7119Q9.9707-15.3516 11.6992-15.3516Q13.4277-15.3516 14.9316-14.7119Q16.4355-14.0723 17.5781-12.9297Q18.7207-11.7871 19.3652-10.2832Q20.0098-8.7793 20.0098-7.05078Q20.0098-5.32227 19.3701-3.81836Q18.7305-2.31445 17.5928-1.17676Q16.4551-0.0390625 14.9463 0.605469Q13.4375 1.25 11.709 1.25ZM7.17773-7.05078Q7.17773-6.69922 7.41211-6.47461Q7.64648-6.25 8.01758-6.25L10.8887-6.25L10.8887-3.36914Q10.8887-2.99805 11.1133-2.76855Q11.3379-2.53906 11.6895-2.53906Q12.0605-2.53906 12.29-2.76855Q12.5195-2.99805 12.5195-3.36914L12.5195-6.25L15.4004-6.25Q15.7715-6.25 16.001-6.47461Q16.2305-6.69922 16.2305-7.05078Q16.2305-7.42188 16.001-7.65137Q15.7715-7.88086 15.4004-7.88086L12.5195-7.88086L12.5195-10.752Q12.5195-11.1328 12.29-11.3623Q12.0605-11.5918 11.6895-11.5918Q11.3379-11.5918 11.1133-11.3574Q10.8887-11.123 10.8887-10.752L10.8887-7.88086L8.01758-7.88086Q7.63672-7.88086 7.40723-7.65137Q7.17773-7.42188 7.17773-7.05078Z"/>
  </g>
  <g transform="matrix(1 0 0 1 305.646 1933)">
   <path d="M14.9707 5.66406Q17.0605 5.66406 18.96 5.01465Q20.8594 4.36523 22.4512 3.19336Q24.043 2.02148 25.2197 0.429688Q26.3965-1.16211 27.0459-3.06641Q27.6953-4.9707 27.6953-7.05078Q27.6953-9.14062 27.0459-11.04Q26.3965-12.9395 25.2197-14.5312Q24.043-16.123 22.4512-17.2998Q20.8594-18.4766 18.9551-19.126Q17.0508-19.7754 14.9609-19.7754Q12.8711-19.7754 10.9717-19.126Q9.07227-18.4766 7.48535-17.2998Q5.89844-16.123 4.72168-14.5312Q3.54492-12.9395 2.90039-11.04Q2.25586-9.14062 2.25586-7.05078Q2.25586-4.9707 2.90527-3.06641Q3.55469-1.16211 4.72656 0.429688Q5.89844 2.02148 7.49023 3.19336Q9.08203 4.36523 10.9814 5.01465Q12.8809 5.66406 14.9707 5.66406ZM14.9707 3.84766Q13.1641 3.84766 11.5283 3.2959Q9.89258 2.74414 8.53516 1.74805Q7.17773 0.751953 6.17676-0.610352Q5.17578-1.97266 4.62891-3.6084Q4.08203-5.24414 4.08203-7.05078Q4.08203-8.86719 4.62891-10.5029Q5.17578-12.1387 6.17188-13.501Q7.16797-14.8633 8.52539-15.8594Q9.88281-16.8555 11.5186-17.4023Q13.1543-17.9492 14.9609-17.9492Q16.7773-17.9492 18.4131-17.4023Q20.0488-16.8555 21.4111-15.8594Q22.7734-14.8633 23.7695-13.501Q24.7656-12.1387 25.3174-10.5029Q25.8691-8.86719 25.8691-7.05078Q25.8789-5.24414 25.332-3.6084Q24.7852-1.97266 23.7842-0.610352Q22.7832 0.751953 21.4209 1.74805Q20.0586 2.74414 18.4229 3.2959Q16.7871 3.84766 14.9707 3.84766ZM9.19922-7.05078Q9.19922-6.66992 9.45801-6.4209Q9.7168-6.17188 10.1172-6.17188L14.0625-6.17188L14.0625-2.2168Q14.0625-1.81641 14.3115-1.55762Q14.5605-1.29883 14.9512-1.29883Q15.3516-1.29883 15.6104-1.55273Q15.8691-1.80664 15.8691-2.2168L15.8691-6.17188L19.8242-6.17188Q20.2246-6.17188 20.4785-6.4209Q20.7324-6.66992 20.7324-7.05078Q20.7324-7.46094 20.4785-7.71484Q20.2246-7.96875 19.8242-7.96875L15.8691-7.96875L15.8691-11.9141Q15.8691-12.3242 15.6104-12.583Q15.3516-12.8418 14.9512-12.8418Q14.5605-12.8418 14.3115-12.583Q14.0625-12.3242 14.0625-11.9141L14.0625-7.96875L10.1172-7.96875Q9.70703-7.96875 9.45312-7.71484Q9.19922-7.46094 9.19922-7.05078Z"/>
  </g>
  <text style="stroke:none;fill:black;font-family:sans-serif;font-size:13;font-weight:bold;" transform="matrix(1 0 0 1 263 1953)">Design Variations</text>
  <text style="stroke:none;fill:black;font-family:sans-serif;font-size:13;" transform="matrix(1 0 0 1 263 1971)">Symbols are supported in up to nine weights and three scales.</text>
  <text style="stroke:none;fill:black;font-family:sans-serif;font-size:13;" transform="matrix(1 0 0 1 263 1989)">For optimal layout with text and other symbols, vertically align</text>
  <text style="stroke:none;fill:black;font-family:sans-serif;font-size:13;" transform="matrix(1 0 0 1 263 2007)">symbols with the adjacent text.</text>
  <line style="fill:none;stroke:#00AEEF;stroke-width:0.5;opacity:1.0;" x1="776" x2="776" y1="1919" y2="1933"/>
  <g transform="matrix(1 0 0 1 776 1933)">
   <path d="M3.31055 0.15625Q3.70117 0.15625 3.91602-0.00976562Q4.13086-0.175781 4.26758-0.585938L5.52734-4.0332L11.2891-4.0332L12.5488-0.585938Q12.6855-0.175781 12.9004-0.00976562Q13.1152 0.15625 13.4961 0.15625Q13.8867 0.15625 14.1162-0.0585938Q14.3457-0.273438 14.3457-0.644531Q14.3457-0.869141 14.2383-1.17188L9.6582-13.3691Q9.48242-13.8184 9.17969-14.043Q8.87695-14.2676 8.4082-14.2676Q7.5-14.2676 7.17773-13.3789L2.59766-1.16211Q2.49023-0.859375 2.49023-0.634766Q2.49023-0.263672 2.70996-0.0537109Q2.92969 0.15625 3.31055 0.15625ZM6.00586-5.51758L8.37891-12.0898L8.42773-12.0898L10.8008-5.51758Z"/>
  </g>
  <line style="fill:none;stroke:#00AEEF;stroke-width:0.5;opacity:1.0;" x1="793.197" x2="793.197" y1="1919" y2="1933"/>
  <text style="stroke:none;fill:black;font-family:sans-serif;font-size:13;font-weight:bold;" transform="matrix(1 0 0 1 776 1953)">Margins</text>
  <text style="stroke:none;fill:black;font-family:sans-serif;font-size:13;" transform="matrix(1 0 0 1 776 1971)">Leading and trailing margins on the left and right side of each symbol</text>
  <text style="stroke:none;fill:black;font-family:sans-serif;font-size:13;" transform="matrix(1 0 0 1 776 1989)">can be adjusted by modifying the x-location of the margin guidelines.</text>
  <text style="stroke:none;fill:black;font-family:sans-serif;font-size:13;" transform="matrix(1 0 0 1 776 2007)">Modifications are automatically applied proportionally to all</text>
  <text style="stroke:none;fill:black;font-family:sans-serif;font-size:13;" transform="matrix(1 0 0 1 776 2025)">scales and weights.</text>
  <g transform="matrix(1 0 0 1 1289 1933)">
   <path d="M2.8418 1.86523L4.54102 3.57422Q5.18555 4.22852 5.90332 4.17969Q6.62109 4.13086 7.31445 3.35938L18.0078-8.42773L17.041-9.4043L6.42578 2.27539Q6.16211 2.57812 5.89355 2.61719Q5.625 2.65625 5.27344 2.30469L4.10156 1.14258Q3.75 0.791016 3.79395 0.522461Q3.83789 0.253906 4.14062-0.0195312L15.6152-10.8203L14.6387-11.7871L3.04688-0.898438Q2.30469-0.214844 2.25098 0.498047Q2.19727 1.21094 2.8418 1.86523ZM9.25781-16.3281Q8.94531-16.0254 8.90625-15.6348Q8.86719-15.2441 9.04297-14.9512Q9.21875-14.6777 9.55566-14.541Q9.89258-14.4043 10.3809-14.5215Q11.4746-14.7754 12.5977-14.7314Q13.7207-14.6875 14.7949-13.9844L14.209-12.5293Q13.9551-11.9043 14.0674-11.4404Q14.1797-10.9766 14.5801-10.5664L16.875-8.25195Q17.2363-7.88086 17.5781-7.82227Q17.9199-7.76367 18.3398-7.8418L19.4043-8.03711L20.0684-7.36328L20.0293-6.80664Q20-6.43555 20.1221-6.12305Q20.2441-5.81055 20.6055-5.44922L21.3672-4.70703Q21.7285-4.3457 22.1533-4.33105Q22.5781-4.31641 22.9297-4.66797L25.8398-7.58789Q26.1914-7.93945 26.1816-8.35449Q26.1719-8.76953 25.8105-9.13086L25.0391-9.89258Q24.6875-10.2539 24.3799-10.3857Q24.0723-10.5176 23.7109-10.4883L23.1348-10.4395L22.4902-11.0742L22.7344-12.1973Q22.832-12.6172 22.6953-12.9834Q22.5586-13.3496 22.1191-13.7891L19.9219-15.9766Q18.6719-17.2168 17.2607-17.8369Q15.8496-18.457 14.4189-18.4814Q12.9883-18.5059 11.665-17.959Q10.3418-17.4121 9.25781-16.3281ZM10.752-15.957Q11.6602-16.6211 12.7002-16.9043Q13.7402-17.1875 14.8047-17.085Q15.8691-16.9824 16.8701-16.5137Q17.8711-16.0449 18.7012-15.2051L21.1328-12.793Q21.3086-12.6172 21.3525-12.4512Q21.3965-12.2852 21.3379-12.0312L21.0156-10.5469L22.5195-9.0625L23.5059-9.12109Q23.6914-9.13086 23.7891-9.09668Q23.8867-9.0625 24.0332-8.91602L24.6094-8.33984L22.168-5.89844L21.5918-6.47461Q21.4453-6.62109 21.4062-6.71875Q21.3672-6.81641 21.377-7.01172L21.4453-7.98828L19.9512-9.47266L18.4277-9.21875Q18.1836-9.16992 18.042-9.2041Q17.9004-9.23828 17.7148-9.41406L15.7129-11.416Q15.5176-11.5918 15.4932-11.7529Q15.4688-11.9141 15.5859-12.1875L16.4648-14.2773Q15.293-15.3711 13.8281-15.791Q12.3633-16.2109 10.8398-15.7617Q10.7227-15.7324 10.6885-15.8057Q10.6543-15.8789 10.752-15.957Z"/>
  </g>
  <text style="stroke:none;fill:black;font-family:sans-serif;font-size:13;font-weight:bold;" transform="matrix(1 0 0 1 1289 1953)">Exporting</text>
  <text style="stroke:none;fill:black;font-family:sans-serif;font-size:13;" transform="matrix(1 0 0 1 1289 1971)">Symbols should be outlined when exporting to ensure the</text>
  <text style="stroke:none;fill:black;font-family:sans-serif;font-size:13;" transform="matrix(1 0 0 1 1289 1989)">design is preserved when submitting to Xcode.</text>
  <text id="template-version" style="stroke:none;fill:black;font-family:sans-serif;font-size:13;text-anchor:end;" transform="matrix(1 0 0 1 3036 1933)">Template v.3.0</text>
  <text style="stroke:none;fill:black;font-family:sans-serif;font-size:13;text-anchor:end;" transform="matrix(1 0 0 1 3036 1951)">Requires Xcode 13 or greater</text>
  <text id="descriptive-name" style="stroke:none;fill:black;font-family:sans-serif;font-size:13;text-anchor:end;" transform="matrix(1 0 0 1 3036 1969)">Generated from cloud.sun.fill</text>
  <text style="stroke:none;fill:black;font-family:sans-serif;font-size:13;text-anchor:end;" transform="matrix(1 0 0 1 3036 1987)">Typeset at 100 points</text>
  <text style="stroke:none;fill:black;font-family:sans-serif;font-size:13;" transform="matrix(1 0 0 1 263 726)">Small</text>
  <text style="stroke:none;fill:black;font-family:sans-serif;font-size:13;" transform="matrix(1 0 0 1 263 1156)">Medium</text>
  <text style="stroke:none;fill:black;font-family:sans-serif;font-size:13;" transform="matrix(1 0 0 1 263 1586)">Large</text>
 </g>
 <g id="Guides">
  <g id="H-reference" style="fill:#27AAE1;stroke:none;" transform="matrix(1 0 0 1 339 696)">
   <path d="M0.993347 0L3.6377 0L29.3282-67.1326L30.0301-67.1326L30.0301-70.459L28.1227-70.459ZM11.6882-24.4797L46.9818-24.4797L46.2311-26.7288L12.4382-26.7288ZM55.1193 0L57.7637 0L30.6381-70.459L29.4327-70.459L29.4327-67.1326Z"/>
  </g>
  <line id="Baseline-S" style="fill:none;stroke:#27AAE1;opacity:1;stroke-width:0.5;" x1="263" x2="3036" y1="696" y2="696"/>
  <line id="Capline-S" style="fill:none;stroke:#27AAE1;opacity:1;stroke-width:0.5;" x1="263" x2="3036" y1="625.541" y2="625.541"/>
  <g id="H-reference" style="fill:#27AAE1;stroke:none;" transform="matrix(1 0 0 1 339 1126)">
   <path d="M0.993347 0L3.6377 0L29.3282-67.1326L30.0301-67.1326L30.0301-70.459L28.1227-70.459ZM11.6882-24.4797L46.9818-24.4797L46.2311-26.7288L12.4382-26.7288ZM55.1193 0L57.7637 0L30.6381-70.459L29.4327-70.459L29.4327-67.1326Z"/>
  </g>
  <line id="Baseline-M" style="fill:none;stroke:#27AAE1;opacity:1;stroke-width:0.5;" x1="263" x2="3036" y1="1126" y2="1126"/>
  <line id="Capline-M" style="fill:none;stroke:#27AAE1;opacity:1;stroke-width:0.5;" x1="263" x2="3036" y1="1055.54" y2="1055.54"/>
  <g id="H-reference" style="fill:#27AAE1;stroke:none;" transform="matrix(1 0 0 1 339 1556)">
   <path d="M0.993347 0L3.6377 0L29.3282-67.1326L30.0301-67.1326L30.0301-70.459L28.1227-70.459ZM11.6882-24.4797L46.9818-24.4797L46.2311-26.7288L12.4382-26.7288ZM55.1193 0L57.7637 0L30.6381-70.459L29.4327-70.459L29.4327-67.1326Z"/>
  </g>
  <line id="Baseline-L" style="fill:none;stroke:#27AAE1;opacity:1;stroke-width:0.5;" x1="263" x2="3036" y1="1556" y2="1556"/>
  <line id="Capline-L" style="fill:none;stroke:#27AAE1;opacity:1;stroke-width:0.5;" x1="263" x2="3036" y1="1485.54" y2="1485.54"/>
  <line id="left-margin-Ultralight-S" style="fill:none;stroke:#00AEEF;stroke-width:0.5;opacity:1.0;" x1="505.373" x2="505.373" y1="600.785" y2="720.121"/>
  <line id="right-margin-Ultralight-S" style="fill:none;stroke:#FF3B30;stroke-width:0.5;opacity:1.0;" x1="614.049" x2="614.049" y1="600.785" y2="720.121"/>
  <line id="left-margin-Regular-S" style="fill:none;stroke:#00AEEF;stroke-width:0.5;opacity:1.0;" x1="1393.99" x2="1393.99" y1="600.785" y2="720.121"/>
  <line id="right-margin-Regular-S" style="fill:none;stroke:#FF3B30;stroke-width:0.5;opacity:1.0;" x1="1505.7" x2="1505.7" y1="600.785" y2="720.121"/>
  <line id="left-margin-Black-S" style="fill:none;stroke:#00AEEF;stroke-width:0.5;opacity:1.0;" x1="2872.61" x2="2872.61" y1="600.785" y2="720.121"/>
  <line id="right-margin-Black-S" style="fill:none;stroke:#FF3B30;stroke-width:0.5;opacity:1.0;" x1="2994.19" x2="2994.19" y1="600.785" y2="720.121"/>
 </g>
 <g id="Symbols">
  <g id="Black-S" transform="matrix(1 0 0 1 2872.61 696)">
   <path class="multicolor-0:white hierarchical-1:primary SFSymbolsPreviewFFFFFF" d="M20.5566 2.68555L68.3105 2.68555Q73.9746 2.68555 78.418-0.0244141Q82.8613-2.73438 85.4492-7.39746Q88.0371-12.0605 88.0371-17.9199Q88.0371-24.1699 85.2295-29.0039Q82.4219-33.8379 77.5146-36.5967Q72.6074-39.3555 66.2598-39.3066Q64.4043-42.8223 61.2549-46.0449Q58.1055-49.2676 53.3936-51.3428Q48.6816-53.418 42.0898-53.418Q35.0098-53.418 29.126-50.2686Q23.2422-47.1191 19.5557-41.6504Q15.8691-36.1816 15.332-29.2969Q9.91211-27.9297 6.66504-23.6816Q3.41797-19.4336 3.41797-13.623Q3.41797-6.34766 8.1543-1.83105Q12.8906 2.68555 20.5566 2.68555Z"/>
   <path class="multicolor-1:systemYellowColor hierarchical-0:secondary SFSymbolsPreviewFFCC00" d="M95.0684-25.3906Q98.6816-27.9297 100.952-32.2021Q103.223-36.4746 103.223-41.5039Q103.223-47.0703 100.513-51.6113Q97.8027-56.1523 93.2373-58.8623Q88.6719-61.5723 83.1055-61.5723Q77.6367-61.5723 73.0957-58.96Q68.5547-56.3477 66.2109-52.3926Q68.9941-49.707 70.8496-46.0449Q76.6113-45.8008 81.665-43.0664Q86.7188-40.332 90.2588-35.7666Q93.7988-31.2012 95.0684-25.3906ZM83.0078-67.4805Q85.0098-67.4805 86.4014-68.9453Q87.793-70.4102 87.793-72.3633L87.793-78.6133Q87.793-80.6152 86.4014-82.0557Q85.0098-83.4961 83.0078-83.4961Q81.0547-83.4961 79.6387-82.0557Q78.2227-80.6152 78.2227-78.6133L78.2227-72.3633Q78.2227-70.4102 79.6387-68.9453Q81.0547-67.4805 83.0078-67.4805ZM113.867-36.7188L120.117-36.7188Q122.119-36.7188 123.56-38.1104Q125-39.502 125-41.4551Q125-43.457 123.56-44.873Q122.119-46.2891 120.117-46.2891L113.867-46.2891Q111.914-46.2891 110.449-44.873Q108.984-43.457 108.984-41.4551Q108.984-39.502 110.449-38.1104Q111.914-36.7188 113.867-36.7188ZM101.465-59.8145Q102.881-58.4473 104.907-58.4961Q106.934-58.5449 108.301-59.9121L112.744-64.3066Q114.16-65.7227 114.185-67.749Q114.209-69.7754 112.793-71.1426Q111.426-72.5586 109.399-72.5098Q107.373-72.4609 105.957-71.0449L101.514-66.6992Q100.098-65.332 100.098-63.2812Q100.098-61.2305 101.465-59.8145ZM57.7637-59.9609Q59.1797-58.5449 61.2061-58.5205Q63.2324-58.4961 64.5996-59.8633Q66.0156-61.2793 65.9668-63.2568Q65.918-65.2344 64.502-66.6992L60.1562-71.1914Q58.7891-72.6074 56.7383-72.6074Q54.6875-72.6074 53.2715-71.1914Q51.9043-69.8242 51.9531-67.8223Q52.002-65.8203 53.3691-64.4043ZM105.908-11.8164Q107.324-10.4004 109.351-10.376Q111.377-10.3516 112.744-11.7188Q114.16-13.1348 114.111-15.1123Q114.062-17.0898 112.646-18.5547L108.301-23.0469Q106.934-24.4629 104.883-24.4629Q102.832-24.4629 101.416-23.0469Q100.049-21.6797 100.098-19.6777Q100.146-17.6758 101.514-16.2598Z"/>
  </g>
  <g id="Regular-S" transform="matrix(1 0 0 1 1393.99 696)">
   <path class="multicolor-0:white hierarchical-1:primary SFSymbolsPreviewFFFFFF" d="M20.1172-2.00195L61.377-2.00195Q66.8945-2.00195 71.3135-4.54102Q75.7324-7.08008 78.3203-11.4258Q80.9082-15.7715 80.9082-21.1914Q80.9082-26.5625 78.2715-30.835Q75.6348-35.1074 71.0449-37.5977Q66.4551-40.0879 60.6445-40.1367Q58.4473-44.2871 55.1514-47.29Q51.8555-50.293 47.7051-51.9043Q43.5547-53.5156 38.916-53.5156Q32.6172-53.5156 27.2461-50.5615Q21.875-47.6074 18.4326-42.5781Q14.9902-37.5488 14.4043-31.25Q9.57031-29.7363 6.71387-25.8545Q3.85742-21.9727 3.85742-16.8457Q3.85742-10.2539 8.34961-6.12793Q12.8418-2.00195 20.1172-2.00195Z"/>
   <path class="multicolor-1:systemYellowColor hierarchical-0:secondary SFSymbolsPreviewFFCC00" d="M85.7422-23.1445Q89.8438-26.0742 92.1631-30.2734Q94.4824-34.4727 94.4824-39.4043Q94.4824-44.7266 91.8945-49.0967Q89.3066-53.4668 84.9609-56.0547Q80.6152-58.6426 75.293-58.6426Q70.2637-58.6426 66.0645-56.25Q61.8652-53.8574 59.3262-49.9512Q61.8652-47.4609 63.5742-44.2871Q70.0195-43.75 74.8291-41.0156Q79.6387-38.2812 82.4463-33.7158Q85.2539-29.1504 85.7422-23.1445ZM75.293-64.4531Q76.8066-64.4531 77.8809-65.5518Q78.9551-66.6504 78.9551-68.1152L78.9551-75.7324Q78.9551-77.2461 77.8809-78.3203Q76.8066-79.3945 75.293-79.3945Q73.7793-79.3945 72.7051-78.3203Q71.6309-77.2461 71.6309-75.7324L71.6309-68.1152Q71.6309-66.6504 72.7051-65.5518Q73.7793-64.4531 75.293-64.4531ZM103.955-35.7422L111.572-35.7422Q113.086-35.7422 114.136-36.8164Q115.186-37.8906 115.186-39.4043Q115.186-40.918 114.136-41.9922Q113.086-43.0664 111.572-43.0664L103.955-43.0664Q102.49-43.0664 101.392-41.9922Q100.293-40.918 100.293-39.4043Q100.293-37.8906 101.392-36.8164Q102.49-35.7422 103.955-35.7422ZM92.9688-57.0801Q93.9941-56.0547 95.5566-56.0303Q97.1191-56.0059 98.1934-57.0801L103.564-62.5Q104.639-63.5742 104.614-65.0879Q104.59-66.6016 103.564-67.6758Q102.49-68.7012 101.001-68.7012Q99.5117-68.7012 98.4375-67.6758L92.9688-62.207Q91.9434-61.1328 91.9434-59.6436Q91.9434-58.1543 92.9688-57.0801ZM52.4414-57.0801Q53.5156-56.0059 55.0537-56.0303Q56.5918-56.0547 57.6172-57.0801Q58.6426-58.1543 58.667-59.6436Q58.6914-61.1328 57.6172-62.207L52.1484-67.6758Q51.123-68.7012 49.6094-68.7012Q48.0957-68.7012 47.0703-67.6758Q45.9961-66.6016 45.9961-65.0879Q45.9961-63.5742 47.0703-62.5ZM98.4375-11.1328Q99.5117-10.0586 101.001-10.083Q102.49-10.1074 103.564-11.1816Q104.59-12.207 104.614-13.7207Q104.639-15.2344 103.564-16.2598L98.0957-21.6797Q97.0215-22.7051 95.5322-22.7295Q94.043-22.7539 92.9688-21.6797Q91.9434-20.6543 91.9434-19.1162Q91.9434-17.5781 92.9688-16.5527Z"/>
  </g>
  <g id="Ultralight-S" transform="matrix(1 0 0 1 505.373 696)">
   <path class="multicolor-0:white hierarchical-1:primary SFSymbolsPreviewFFFFFF" d="M18.9362-3.45535L61.0138-3.45535Q66.1682-3.45535 70.3144-5.78995Q74.4606-8.12454 76.8898-12.1071Q79.319-16.0896 79.319-20.9641Q79.319-25.8812 76.8185-29.7676Q74.3179-33.654 70.0005-35.9402Q65.683-38.2263 60.2356-38.2294Q58.0383-42.4706 54.9015-45.6551Q51.7647-48.8396 47.6826-50.61Q43.6005-52.3804 38.5979-52.3804Q32.6172-52.3804 27.6093-49.4263Q22.6013-46.4722 19.4317-41.42Q16.2621-36.3678 15.7211-30.1147Q10.9779-28.9192 7.66754-25.4005Q4.35715-21.8819 4.35715-16.6183Q4.35715-11.2076 8.23631-7.33147Q12.1155-3.45535 18.9362-3.45535Z"/>
   <path class="multicolor-1:systemYellowColor hierarchical-0:secondary SFSymbolsPreviewFFCC00" d="M81.9733-23.6893Q86.7561-26.165 89.6656-30.5458Q92.5751-34.9266 92.5751-40.5396Q92.5751-45.4987 90.1688-49.551Q87.7625-53.6034 83.7349-56.0093Q79.7073-58.4152 74.7482-58.4152Q68.8103-58.4152 64.2708-55.0919Q59.7313-51.7685 57.9185-46.5454Q60.321-43.737 61.8034-40.8813Q67.4767-40.4808 71.7186-38.1321Q75.9605-35.7834 78.5866-32.0354Q81.2126-28.2875 81.9733-23.6893ZM74.7932-65.5884Q75.2174-65.5884 75.5424-65.8924Q75.8675-66.1964 75.8675-66.571L75.8675-77.7306Q75.8675-78.154 75.5424-78.4565Q75.2174-78.759 74.7932-78.759Q74.3698-78.759 74.0448-78.4565Q73.7198-78.154 73.7198-77.7306L73.7198-66.571Q73.7198-66.1964 74.0448-65.8924Q74.3698-65.5884 74.7932-65.5884ZM100.731-39.5111L111.935-39.5111Q112.405-39.5111 112.705-39.8132Q113.006-40.1154 113.006-40.5396Q113.006-40.9637 112.705-41.243Q112.405-41.5222 111.935-41.5222L100.731-41.5222Q100.311-41.5222 100.029-41.243Q99.7482-40.9637 99.7482-40.5396Q99.7482-40.1154 100.029-39.8132Q100.311-39.5111 100.731-39.5111ZM92.469-58.2153Q92.7681-57.9163 93.1953-57.9147Q93.6226-57.9132 93.9247-58.2153L101.794-66.0873Q102.141-66.3895 102.116-66.8133Q102.092-67.2371 101.794-67.5392Q101.492-67.8383 101.092-67.8612Q100.693-67.8841 100.345-67.5392L92.469-59.6642Q92.1707-59.362 92.1707-58.9172Q92.1707-58.4724 92.469-58.2153ZM55.6656-58.2153Q55.9227-57.9132 56.3709-57.9147Q56.8192-57.9163 57.1175-58.2153Q57.4165-58.4724 57.4181-58.9172Q57.4196-59.362 57.1175-59.6642L49.2424-67.5392Q48.8983-67.8841 48.4741-67.8612Q48.0499-67.8383 47.7516-67.5392Q47.4495-67.2371 47.4495-66.8133Q47.4495-66.3895 47.7516-66.0873ZM100.345-13.4483Q100.693-13.1012 101.092-13.1256Q101.492-13.15 101.794-13.4521Q102.092-13.7512 102.116-14.175Q102.141-14.5988 101.794-14.8972L93.9178-22.8149Q93.6157-23.0682 93.1934-23.0701Q92.7711-23.0721 92.469-22.8149Q92.1707-22.5159 92.1707-22.0676Q92.1707-21.6194 92.469-21.3211Z"/>
  </g>
 </g>
</svg>
